<svg width="90" height="90" viewBox="0 0 90 90" fill="none" xmlns="http://www.w3.org/2000/svg">
<path opacity="0.3" d="M24.3205 58.759L29.9791 52.3135L35.6376 58.759C36.9117 60.2579 40.4342 63.7055 44.9686 63.7055C49.5029 63.7055 53.0254 60.2579 54.2996 58.759L59.9581 52.3135L65.6166 58.759C66.3661 59.6209 67.8651 61.1573 69.8886 62.2815L74.0857 47.4044L65.1295 44.4814L44.9686 37.8861L24.8077 44.5189L15.814 47.4793L20.0485 62.319C22.1096 61.1573 23.571 59.6209 24.3205 58.759ZM41.2212 11.2422H48.716V14.9896H41.2212V11.2422Z" fill="#FAEC50"/>
<path d="M14.8022 71.2003H14.9896C20.9854 71.2003 26.3067 67.9026 29.9791 63.7055C33.6515 67.9026 38.9728 71.2003 44.9686 71.2003C50.9644 71.2003 56.2857 67.9026 59.9581 63.7055C63.6306 67.9026 68.9518 71.2003 74.9476 71.2003H75.135L82.2176 46.1678C82.5173 45.1935 82.4424 44.1442 81.9927 43.2448C81.543 42.3454 80.7186 41.6709 79.7443 41.3711L74.9476 39.7972V22.4843C74.9476 18.3622 71.575 14.9896 67.4529 14.9896H56.2107V3.74744H33.7265V14.9896H22.4843C18.3622 14.9896 14.9896 18.3622 14.9896 22.4843V39.7972L10.1555 41.3711C9.18114 41.6709 8.35671 42.3454 7.90703 43.2448C7.45734 44.1442 7.34492 45.1935 7.68218 46.1678L14.8022 71.2003ZM41.2212 11.2422H48.716V14.9896H41.2212V11.2422ZM22.4843 22.4843H67.4529V37.3614L44.9686 29.9791L22.4843 37.3614V22.4843ZM24.8077 44.4815L44.9686 37.8861L65.1295 44.5189L74.0857 47.4419L69.8887 62.319C67.8651 61.1948 66.3661 59.6583 65.6167 58.7964L59.9581 52.3135L54.2996 58.759C53.0255 60.2579 49.5029 63.7055 44.9686 63.7055C40.4343 63.7055 36.9117 60.2579 35.6376 58.759L29.9791 52.3135L24.3205 58.759C23.5711 59.6209 22.0721 61.1198 20.0485 62.244L15.814 47.4044L24.8077 44.4815V44.4815ZM29.9791 82.4799C34.7008 84.8782 39.8347 86.1148 44.9686 86.1148C50.1025 86.1148 55.2364 84.9157 59.9581 82.4799C64.6798 84.9157 69.7763 86.1898 74.9476 86.1898H82.4424V78.695H74.9476C69.7388 78.695 64.5299 76.9338 59.9581 73.7485C55.3863 76.9338 50.1775 78.5451 44.9686 78.5451C39.7597 78.5451 34.5509 76.9338 29.9791 73.7485C25.4073 76.9338 20.1984 78.695 14.9896 78.695H7.49482V86.1898H14.9896C20.161 86.1898 25.2574 84.8782 29.9791 82.4799Z" fill="#0A66C2"/>
</svg>
