<svg width="91" height="91" viewBox="0 0 91 91" fill="none" xmlns="http://www.w3.org/2000/svg">
<path opacity="0.3" d="M45.3679 22.9371C30.7531 22.9371 19.1362 34.554 19.1362 49.1688C19.1362 63.7836 30.7531 75.4004 45.3679 75.4004C59.9827 75.4004 71.5995 63.7836 71.5995 49.1688C71.5995 34.554 59.9827 22.9371 45.3679 22.9371ZM59.2332 63.7836L41.6205 52.9162V30.4319H47.2416V50.293L62.2311 59.2867L59.2332 63.7836Z" fill="#FAEC50"/>
<path d="M82.8419 21.8122L65.6039 7.19739L60.7323 12.8185L77.9703 27.4332L82.8419 21.8122ZM47.2418 30.4311H41.6207V52.9154L59.2334 63.7828L62.2313 59.286L47.2418 50.2922V30.4311ZM45.3681 15.4416C26.6312 15.4416 11.6417 30.4311 11.6417 49.168C11.6417 67.9049 26.6312 82.8944 45.3681 82.8944C64.105 82.8944 79.0945 67.9049 79.0945 49.168C79.0945 30.4311 64.105 15.4416 45.3681 15.4416ZM45.3681 75.3997C30.7533 75.3997 19.1364 63.7828 19.1364 49.168C19.1364 34.5533 30.7533 22.9364 45.3681 22.9364C59.9829 22.9364 71.5997 34.5533 71.5997 49.168C71.5997 63.7828 59.9829 75.3997 45.3681 75.3997ZM30.0038 13.1932L25.1322 7.57213L7.89429 21.8122L12.7659 27.4332L30.0038 13.1932Z" fill="#0A66C2"/>
</svg>
