<svg width="123" height="62" viewBox="0 0 123 62" fill="none" xmlns="http://www.w3.org/2000/svg">
<path d="M20.6195 36.1918C26.2405 36.1918 30.8396 31.5928 30.8396 25.9717C30.8396 20.3506 26.2405 15.7516 20.6195 15.7516C14.9984 15.7516 10.3993 20.3506 10.3993 25.9717C10.3993 31.5928 14.9984 36.1918 20.6195 36.1918ZM26.3938 41.8129C24.5031 41.5063 22.6124 41.3019 20.6195 41.3019C15.5605 41.3019 10.757 42.375 6.41348 44.2657C2.63203 45.9009 0.179199 49.5802 0.179199 53.7193V61.7421H23.1745V53.5149C23.1745 49.2736 24.3498 45.2877 26.3938 41.8129ZM102.38 36.1918C108.002 36.1918 112.601 31.5928 112.601 25.9717C112.601 20.3506 108.002 15.7516 102.38 15.7516C96.7594 15.7516 92.1603 20.3506 92.1603 25.9717C92.1603 31.5928 96.7594 36.1918 102.38 36.1918ZM122.821 53.7193C122.821 49.5802 120.368 45.9009 116.586 44.2657C112.243 42.375 107.439 41.3019 102.38 41.3019C100.388 41.3019 98.4968 41.5063 96.6061 41.8129C98.6501 45.2877 99.8254 49.2736 99.8254 53.5149V61.7421H122.821V53.7193ZM83.1666 39.5134C77.1878 36.8561 69.8294 34.9143 61.5 34.9143C53.1706 34.9143 45.8121 36.9072 39.8333 39.5134C34.3144 41.9662 30.8396 47.4851 30.8396 53.5149V61.7421H92.1603V53.5149C92.1603 47.4851 88.6855 41.9662 83.1666 39.5134ZM41.4174 51.522C41.8773 50.3467 42.0817 49.5291 46.0676 47.9961C51.0243 46.0543 56.2366 45.1344 61.5 45.1344C66.7633 45.1344 71.9756 46.0543 76.9323 47.9961C80.8671 49.5291 81.0715 50.3467 81.5825 51.522H41.4174ZM61.5 10.6415C64.3105 10.6415 66.61 12.941 66.61 15.7516C66.61 18.5621 64.3105 20.8616 61.5 20.8616C58.6894 20.8616 56.3899 18.5621 56.3899 15.7516C56.3899 12.941 58.6894 10.6415 61.5 10.6415ZM61.5 0.421387C53.0173 0.421387 46.1698 7.26887 46.1698 15.7516C46.1698 24.2343 53.0173 31.0818 61.5 31.0818C69.9827 31.0818 76.8301 24.2343 76.8301 15.7516C76.8301 7.26887 69.9827 0.421387 61.5 0.421387Z" fill="#FAEC50"/>
</svg>
