<svg width="106" height="106" viewBox="0 0 106 106" fill="none" xmlns="http://www.w3.org/2000/svg">
<path opacity="0.3" d="M53 17.6667C57.8583 17.6667 61.8333 21.6417 61.8333 26.5C61.8333 31.3584 57.8583 35.3334 53 35.3334C48.1417 35.3334 44.1667 31.3584 44.1667 26.5C44.1667 21.6417 48.1417 17.6667 53 17.6667ZM48.3183 88.3334H43.0625C41.2517 88.3334 39.75 86.8317 39.75 85.0209C39.75 83.21 41.2517 81.7084 43.0625 81.7084H51.41L48.3183 88.3334ZM79.5 88.3334H58.0792L71.0642 60.6409C73.4492 61.5242 75.525 62.4517 77.2475 63.335C78.6167 64.0417 79.5 65.5434 79.5 67.2217V88.3334ZM43.0625 97.1667C36.3492 97.1667 30.9167 91.7342 30.9167 85.0209C30.9167 78.3075 36.3492 72.875 43.0625 72.875H55.5617L62.4075 58.3C59.4925 57.7259 56.3567 57.4167 53 57.4167C42.5325 57.4167 34.0525 60.6409 28.7967 63.335C27.3833 64.0417 26.5 65.5434 26.5 67.2217V97.1667H43.0625Z" fill="#FAEC50"/>
<path d="M53.0013 44.1666C62.7621 44.1666 70.668 36.2608 70.668 26.5C70.668 16.7391 62.7621 8.83331 53.0013 8.83331C43.2405 8.83331 35.3346 16.7391 35.3346 26.5C35.3346 36.2608 43.2405 44.1666 53.0013 44.1666ZM53.0013 17.6666C57.8596 17.6666 61.8346 21.6416 61.8346 26.5C61.8346 31.3583 57.8596 35.3333 53.0013 35.3333C48.143 35.3333 44.168 31.3583 44.168 26.5C44.168 21.6416 48.143 17.6666 53.0013 17.6666ZM81.2238 55.4733C73.8038 51.675 64.1755 48.5833 53.0013 48.5833C41.8271 48.5833 32.1988 51.675 24.7788 55.4733C20.3621 57.7258 17.668 62.275 17.668 67.2216V97.1666H26.5013V67.2216C26.5013 65.5433 27.3846 64.0416 28.798 63.335C34.0538 60.6408 42.5338 57.4166 53.0013 57.4166C56.358 57.4166 59.4938 57.7258 62.4088 58.3L55.563 72.875H43.0638C36.3505 72.875 30.918 78.3075 30.918 85.0208C30.918 91.7341 36.3505 97.1666 43.0638 97.1666H52.6921H79.5013C84.3596 97.1666 88.3346 93.1916 88.3346 88.3333V67.2216C88.3346 62.275 85.6405 57.7258 81.2238 55.4733ZM48.3196 88.3333H43.0638C41.253 88.3333 39.7513 86.8316 39.7513 85.0208C39.7513 83.21 41.253 81.7083 43.0638 81.7083H51.4113L48.3196 88.3333ZM79.5013 88.3333H58.0805L71.0655 60.6408C73.4505 61.5241 75.5263 62.4516 77.2488 63.335C78.618 64.0416 79.5013 65.5433 79.5013 67.2216V88.3333Z" fill="#FAEC50"/>
</svg>
