<svg width="106" height="106" viewBox="0 0 106 106" fill="none" xmlns="http://www.w3.org/2000/svg">
<path d="M52.9992 24.2641L86.2567 81.7249H19.7417L52.9992 24.2641ZM12.1009 77.3082C8.70007 83.1824 12.9401 90.5582 19.7417 90.5582H86.2567C93.0584 90.5582 97.2984 83.1824 93.8976 77.3082L60.6401 19.8474C57.2392 13.9732 48.7592 13.9732 45.3584 19.8474L12.1009 77.3082ZM48.5826 46.3916V55.2249C48.5826 57.6541 50.5701 59.6416 52.9992 59.6416C55.4284 59.6416 57.4159 57.6541 57.4159 55.2249V46.3916C57.4159 43.9624 55.4284 41.9749 52.9992 41.9749C50.5701 41.9749 48.5826 43.9624 48.5826 46.3916ZM48.5826 68.4749H57.4159V77.3082H48.5826V68.4749Z" fill="#FAEC50"/>
</svg>
