<svg width="97" height="98" viewBox="0 0 97 98" fill="none" xmlns="http://www.w3.org/2000/svg">
<path opacity="0.3" d="M16.499 68.986H80.5452V76.9918H16.499V68.986ZM68.5365 40.9658H60.5307V32.9601H36.5134V40.9658H28.5077V32.9601H16.499V56.9774H80.5452V32.9601H68.5365V40.9658Z" fill="#FAEC50"/>
<path d="M80.5451 24.9543H68.5364V16.9485C68.5364 12.5053 64.9738 8.94275 60.5306 8.94275H36.5133C32.0701 8.94275 28.5076 12.5053 28.5076 16.9485V24.9543H16.4989C12.0557 24.9543 8.49316 28.5168 8.49316 32.96V76.9918C8.49316 81.435 12.0557 84.9975 16.4989 84.9975H80.5451C84.9883 84.9975 88.5508 81.435 88.5508 76.9918V32.96C88.5508 28.5168 84.9883 24.9543 80.5451 24.9543ZM36.5133 16.9485H60.5306V24.9543H36.5133V16.9485ZM80.5451 76.9918H16.4989V68.986H80.5451V76.9918ZM80.5451 56.9773H16.4989V32.96H28.5076V40.9658H36.5133V32.96H60.5306V40.9658H68.5364V32.96H80.5451V56.9773Z" fill="#0A66C2"/>
</svg>
