<svg width="111" height="112" viewBox="0 0 111 112" fill="none" xmlns="http://www.w3.org/2000/svg">
<g opacity="0.3">
<path d="M52.2884 45.6518L45.8038 39.1211C41.4347 34.798 35.6859 32.4065 29.5231 32.4065C26.6257 32.4065 23.7743 32.9584 21.1528 33.9702L25.9359 38.7532H36.4217V48.5952C38.2613 49.653 40.3769 50.2048 42.5384 50.2048C45.8958 50.2048 49.0231 48.9171 51.3686 46.5256L52.2884 45.6518Z" fill="#F6FBFD"/>
</g>
<path opacity="0.3" d="M50.7249 31.2068L78.3192 58.6631V65.1478H71.8345L58.8192 52.1325L57.8994 53.0523C55.7838 55.1678 53.3463 56.7315 50.7249 57.7893V69.7469H78.3192V78.945C78.3192 81.4745 80.3888 83.544 82.9183 83.544C85.4477 83.544 87.5173 81.4745 87.5173 78.945V28.3553H50.7249V31.2068Z" fill="#FDEC09"/>
<path d="M41.5267 19.1572V25.5039C37.7095 23.9862 33.6163 23.2044 29.5231 23.2044C21.2908 23.2044 13.0585 26.3318 6.75781 32.6325L22.0727 47.9473H27.1776V53.0523C31.1328 57.0075 36.2838 59.077 41.4807 59.307V69.7469H27.7295V83.544C27.7295 88.603 31.8687 92.7421 36.9276 92.7421H82.9182C90.5526 92.7421 96.7154 86.5794 96.7154 78.945V19.1572H41.5267ZM36.4217 48.6372V38.7492H25.9359L21.1529 33.9662C23.7743 32.9544 26.6257 32.4025 29.5231 32.4025C35.6859 32.4025 41.4347 34.794 45.8038 39.1171L52.2885 45.6018L51.3687 46.5216C49.0231 48.8671 45.8958 50.2009 42.5385 50.2009C40.3769 50.2009 38.2614 49.649 36.4217 48.6372ZM87.5172 78.945C87.5172 81.4745 85.4477 83.544 82.9182 83.544C80.3887 83.544 78.3191 81.4745 78.3191 78.945V69.7469H50.7248V57.8353C53.3463 56.7775 55.7838 55.2138 57.8993 53.0983L58.8191 52.1785L71.8345 65.1478H78.3191V58.6631L50.7248 31.2068V28.3553H87.5172V78.945Z" fill="#0A66C2"/>
</svg>
