<svg width="93" height="93" viewBox="0 0 93 93" fill="none" xmlns="http://www.w3.org/2000/svg">
<g clip-path="url(#clip0_327_5357)">
<path opacity="0.3" d="M12.0513 41.0027C9.9434 41.0027 8.21875 39.278 8.21875 37.1701C8.21875 35.0622 9.9434 33.3376 12.0513 33.3376C14.1592 33.3376 15.8838 35.0622 15.8838 37.1701C15.8838 39.278 14.1592 41.0027 12.0513 41.0027ZM23.5489 81.2444C21.441 81.2444 19.7164 79.5198 19.7164 77.4119C19.7164 75.304 21.441 73.5793 23.5489 73.5793C25.6568 73.5793 27.3815 75.304 27.3815 77.4119C27.3815 79.5198 25.6568 81.2444 23.5489 81.2444ZM42.7117 12.2586C42.7117 10.1507 44.4363 8.42603 46.5442 8.42603C48.6521 8.42603 50.3768 10.1507 50.3768 12.2586C50.3768 14.3665 48.6521 16.0911 46.5442 16.0911C44.4363 16.0911 42.7117 14.3665 42.7117 12.2586ZM46.5442 58.2491C41.2553 58.2491 36.9629 53.9567 36.9629 48.6678C36.9629 43.3789 41.2553 39.0864 46.5442 39.0864C51.8331 39.0864 56.1256 43.3789 56.1256 48.6678C56.1256 53.9567 51.8331 58.2491 46.5442 58.2491ZM69.5395 73.5793C71.6474 73.5793 73.3721 75.304 73.3721 77.4119C73.3721 79.5198 71.6474 81.2444 69.5395 81.2444C67.4316 81.2444 65.707 79.5198 65.707 77.4119C65.707 75.304 67.4316 73.5793 69.5395 73.5793ZM81.0371 41.0027C78.9293 41.0027 77.2046 39.278 77.2046 37.1701C77.2046 35.0622 78.9293 33.3376 81.0371 33.3376C83.1451 33.3376 84.8697 35.0622 84.8697 37.1701C84.8697 39.278 83.1451 41.0027 81.0371 41.0027Z" fill="#F6FBFD"/>
<path d="M81.0372 25.6725C74.6752 25.6725 69.5396 30.8082 69.5396 37.1702C69.5396 37.4385 69.5396 37.7067 69.5779 37.975L61.7978 40.5812C59.345 35.9438 54.8226 32.5711 49.457 31.6896V23.4113C54.3627 22.1083 58.0419 17.6242 58.0419 12.2586C58.0419 5.8966 52.9063 0.760986 46.5443 0.760986C40.1822 0.760986 35.0466 5.8966 35.0466 12.2586C35.0466 17.6242 38.7259 22.1083 43.6699 23.4113V31.6896C38.3043 32.5711 33.7819 35.9438 31.3291 40.5812L23.5107 37.975C23.549 37.7067 23.549 37.4385 23.549 37.1702C23.549 30.8082 18.4134 25.6725 12.0514 25.6725C5.68932 25.6725 0.553711 30.8082 0.553711 37.1702C0.553711 43.5322 5.68932 48.6678 12.0514 48.6678C16.1139 48.6678 19.6398 46.5599 21.7094 43.4172L29.4894 46.0234C28.7229 50.9674 30.141 56.2179 33.6669 60.1655L28.263 66.9491C26.8067 66.2592 25.2353 65.9143 23.549 65.9143C17.187 65.9143 12.0514 71.0499 12.0514 77.4119C12.0514 83.774 17.187 88.9096 23.549 88.9096C29.911 88.9096 35.0466 83.774 35.0466 77.4119C35.0466 74.8058 34.2035 72.4296 32.7471 70.5133L38.151 63.7297C43.3633 66.6425 49.7253 66.6041 54.8992 63.7297L60.3031 70.5133C58.8851 72.4296 58.0419 74.8058 58.0419 77.4119C58.0419 83.774 63.1775 88.9096 69.5396 88.9096C75.9016 88.9096 81.0372 83.774 81.0372 77.4119C81.0372 71.0499 75.9016 65.9143 69.5396 65.9143C67.8532 65.9143 66.2819 66.2592 64.8255 66.9108L59.4216 60.1271C62.9859 56.1413 64.3656 50.929 63.5991 45.985L71.3792 43.3789C73.4104 46.5216 76.9747 48.6295 81.0372 48.6295C87.3992 48.6295 92.5348 43.4939 92.5348 37.1319C92.5348 30.7698 87.3992 25.6725 81.0372 25.6725ZM12.0514 41.0027C9.94345 41.0027 8.21881 39.2781 8.21881 37.1702C8.21881 35.0623 9.94345 33.3376 12.0514 33.3376C14.1593 33.3376 15.8839 35.0623 15.8839 37.1702C15.8839 39.2781 14.1593 41.0027 12.0514 41.0027ZM23.549 81.2445C21.4411 81.2445 19.7164 79.5198 19.7164 77.4119C19.7164 75.304 21.4411 73.5794 23.549 73.5794C25.6569 73.5794 27.3815 75.304 27.3815 77.4119C27.3815 79.5198 25.6569 81.2445 23.549 81.2445ZM42.7117 12.2586C42.7117 10.1507 44.4364 8.42608 46.5443 8.42608C48.6522 8.42608 50.3768 10.1507 50.3768 12.2586C50.3768 14.3665 48.6522 16.0912 46.5443 16.0912C44.4364 16.0912 42.7117 14.3665 42.7117 12.2586ZM46.5443 58.2492C41.2554 58.2492 36.9629 53.9567 36.9629 48.6678C36.9629 43.3789 41.2554 39.0865 46.5443 39.0865C51.8332 39.0865 56.1256 43.3789 56.1256 48.6678C56.1256 53.9567 51.8332 58.2492 46.5443 58.2492ZM69.5396 73.5794C71.6475 73.5794 73.3721 75.304 73.3721 77.4119C73.3721 79.5198 71.6475 81.2445 69.5396 81.2445C67.4317 81.2445 65.707 79.5198 65.707 77.4119C65.707 75.304 67.4317 73.5794 69.5396 73.5794ZM81.0372 41.0027C78.9293 41.0027 77.2047 39.2781 77.2047 37.1702C77.2047 35.0623 78.9293 33.3376 81.0372 33.3376C83.1451 33.3376 84.8698 35.0623 84.8698 37.1702C84.8698 39.2781 83.1451 41.0027 81.0372 41.0027Z" fill="#0A66C2"/>
</g>
<defs>
<clipPath id="clip0_327_5357">
<rect width="91.9811" height="91.9811" fill="white" transform="translate(0.553711 0.760986)"/>
</clipPath>
</defs>
</svg>
