<svg width="91" height="91" viewBox="0 0 91 91" fill="none" xmlns="http://www.w3.org/2000/svg">
<path d="M71.1802 22.562H69.1941L71.8547 15.1796C72.7541 12.7438 71.48 10.0457 69.0442 9.18381C66.6084 8.28444 63.9103 9.55855 63.0109 11.9943L59.1886 22.562H19.5038C14.3699 22.562 10.7724 27.5834 12.3838 32.4176L19.1291 52.541L12.4213 72.6644C10.7724 77.4986 14.4074 82.52 19.5038 82.52H71.1427C76.2392 82.52 79.8741 77.4986 78.2628 72.6644L71.5924 52.541L78.2628 32.4176C79.8741 27.5834 76.2766 22.562 71.1802 22.562ZM56.6029 56.2884H49.1081V63.7831C49.1081 65.8442 47.4218 67.5305 45.3608 67.5305C43.2997 67.5305 41.6134 65.8442 41.6134 63.7831V56.2884H34.1186C32.0576 56.2884 30.3712 54.6021 30.3712 52.541C30.3712 50.4799 32.0576 48.7936 34.1186 48.7936H41.6134V41.2989C41.6134 39.2378 43.2997 37.5515 45.3608 37.5515C47.4218 37.5515 49.1081 39.2378 49.1081 41.2989V48.7936H56.6029C58.664 48.7936 60.3503 50.4799 60.3503 52.541C60.3503 54.6021 58.664 56.2884 56.6029 56.2884Z" fill="#0A66C2"/>
</svg>
