<svg width="106" height="106" viewBox="0 0 106 106" fill="none" xmlns="http://www.w3.org/2000/svg">
<path opacity="0.3" d="M57.3755 48.8532L66.1478 43.5899V17.8433H57.3755V48.8532Z" fill="#F6FBFD"/>
<path opacity="0.3" d="M39.8311 17.8433V43.5899L48.6033 48.8532V17.8433H39.8311Z" fill="#F6FBFD"/>
<path d="M74.92 46.0462V9.07104H31.0586V46.0462C31.0586 47.5813 31.8481 49.0288 33.2078 49.8183L51.5419 60.8275L47.1996 71.091L32.2429 72.363L43.6029 82.188L40.1379 96.7938L52.9893 89.0303L65.8407 96.7938L62.4195 82.188L73.7796 72.363L58.8228 71.091L54.4806 60.8275L72.8146 49.8183C74.1305 49.0288 74.92 47.6252 74.92 46.0462ZM48.6031 48.8533L39.8309 43.5899V17.8433H48.6031V48.8533ZM66.1477 43.5899L57.3754 48.8533V17.8433H66.1477V43.5899Z" fill="#0A66C2"/>
</svg>
