<svg width="107" height="108" viewBox="0 0 107 108" fill="none" xmlns="http://www.w3.org/2000/svg">
<path opacity="0.3" d="M54.5624 88.6673C53.7652 89.4645 52.348 89.5974 51.418 88.6673C50.6208 87.8702 50.4879 86.453 51.418 85.5229L66.4313 70.5096L60.1869 64.2651L45.1735 79.2784C44.332 80.1642 42.9148 80.1199 42.0291 79.2784C41.0991 78.3484 41.2319 76.9312 42.0291 76.1341L57.0425 61.1207L50.798 54.8762L35.7846 69.8896C34.9874 70.6867 33.5702 70.8196 32.6402 69.8896C31.7987 69.0481 31.7987 67.6309 32.6402 66.7452L47.6536 51.7318L41.3648 45.4873L26.3514 60.5007C25.5542 61.2978 24.1371 61.4307 23.207 60.5007C22.3656 59.6149 22.3656 58.242 23.207 57.3563L42.6048 37.9585L50.8865 46.1959C55.0938 50.4032 62.3569 50.3589 66.5642 46.1959C70.9044 41.8557 70.9044 34.8584 66.5642 30.5182L58.3268 22.2808L59.5668 21.0408C63.0212 17.5864 68.6457 17.5864 72.1001 21.0408L90.8779 39.8185C94.3323 43.2729 94.3323 48.8974 90.8779 52.3518L54.5624 88.6673Z" fill="#FDEC09"/>
<path d="M54.5624 88.6711C53.7653 89.4683 52.3481 89.6011 51.4181 88.6711C50.6209 87.8739 50.488 86.4567 51.4181 85.5267L66.4314 70.5133L60.1869 64.2688L45.1736 79.2822C44.3321 80.1679 42.9149 80.1236 42.0292 79.2822C41.0991 78.3522 41.232 76.935 42.0292 76.1378L57.0425 61.1244L50.798 54.8799L35.7847 69.8933C34.9875 70.6905 33.5703 70.8233 32.6403 69.8933C31.7988 69.0518 31.7988 67.6347 32.6403 66.7489L47.6536 51.7355L41.3649 45.4911L26.3515 60.5044C25.5543 61.3016 24.1371 61.4344 23.2071 60.5044C22.3656 59.6187 22.3656 58.2458 23.2071 57.36L42.6049 37.9622L50.8866 46.1996C55.0939 50.4069 62.357 50.3626 66.5643 46.1996C70.9044 41.8595 70.9044 34.8621 66.5643 30.522L58.3269 22.2846L59.5669 21.0445C63.0213 17.5901 68.6458 17.5901 72.1002 21.0445L90.878 39.8223C94.3324 43.2767 94.3324 48.9012 90.878 52.3556L54.5624 88.6711ZM97.1225 58.6444C104.031 51.7355 104.031 40.5309 97.1225 33.5778L78.3447 14.8C71.4359 7.89121 60.2312 7.89121 53.2781 14.8L52.0381 16.0401L50.798 14.8C43.8892 7.89121 32.6846 7.89121 25.7315 14.8L10.0538 30.4777C3.76502 36.7665 3.18929 46.5539 8.28231 53.4627L14.704 47.0411C12.9768 43.7196 13.5525 39.5123 16.3426 36.7222L32.0203 21.0445C35.4747 17.5901 41.0991 17.5901 44.5535 21.0445L60.3198 36.8108C61.117 37.6079 61.2498 39.0251 60.3198 39.9552C59.3898 40.8852 57.9726 40.7523 57.1754 39.9552L42.6049 25.4289L16.9183 51.0712C12.5782 55.3671 12.5782 62.4088 16.9183 66.7489C18.6455 68.4761 20.8599 69.539 23.2071 69.849C23.5171 72.152 24.5357 74.3663 26.3072 76.1378C28.0787 77.9093 30.2931 78.9279 32.596 79.2379C32.906 81.5408 33.9246 83.7552 35.6961 85.5267C37.4676 87.2982 39.6819 88.3168 41.9849 88.6268C42.2949 91.0183 43.3578 93.1884 45.085 94.9156C47.1665 96.9971 49.9566 98.1486 52.9238 98.1486C55.8911 98.1486 58.6812 96.9971 60.7627 94.9156L97.1225 58.6444Z" fill="#0A66C2"/>
</svg>
