<svg width="92" height="92" viewBox="0 0 92 92" fill="none" xmlns="http://www.w3.org/2000/svg">
<path opacity="0.3" d="M23.1392 24.6473V42.4601C23.1392 57.62 32.8036 71.6428 45.8789 75.9255C58.9543 71.6428 68.6187 57.6579 68.6187 42.4601V24.6473L45.8789 16.1199L23.1392 24.6473Z" fill="#F6FBFD"/>
<path d="M45.8788 8.01074L15.5591 19.3806V42.4615C15.5591 61.6008 28.4829 79.4516 45.8788 83.81C63.2747 79.4516 76.1985 61.6008 76.1985 42.4615V19.3806L45.8788 8.01074ZM68.6186 42.4615C68.6186 57.6214 58.9542 71.6442 45.8788 75.9269C32.8034 71.6442 23.139 57.6593 23.139 42.4615V24.6487L45.8788 16.1213L68.6186 24.6487V42.4615Z" fill="#0A66C2"/>
</svg>
