<svg width="98" height="98" viewBox="0 0 98 98" fill="none" xmlns="http://www.w3.org/2000/svg">
<path d="M75.1965 45.151C68.8856 45.151 63.3837 41.5101 60.7137 36.2106L57.5178 29.4546C57.4774 29.3737 55.4951 24.9237 50.2764 24.9237C35.6318 24.9237 24.6282 68.1697 24.6282 77.5148H34.7418L26.2464 88.8421L32.7191 93.6966L44.8555 77.5148H52.9464V93.6966H61.0374V77.3934L52.9464 53.242L54.9287 42.2788C58.2055 47.2547 63.2219 50.9361 69.1283 52.4733V55.2647H73.1738V51.2192C73.1738 50.0865 74.0638 49.1965 75.1965 49.1965C76.3292 49.1965 77.2192 50.0865 77.2192 51.2192V93.6966H81.2647V51.2192C81.2647 47.8615 78.5542 45.151 75.1965 45.151Z" fill="#0A66C2"/>
<path d="M47.2828 12.4233C47.04 13.1919 46.8782 13.9605 46.8782 14.8101C46.8782 19.2601 50.5191 22.901 54.9691 22.901C59.4191 22.901 63.0601 19.2601 63.0601 14.8101C63.0601 10.3601 59.4191 6.71914 54.9691 6.71914C54.1196 6.71914 53.3509 6.88096 52.5823 7.12369C51.9755 5.70778 50.5596 4.69641 48.9009 4.69641C46.6759 4.69641 44.8555 6.51687 44.8555 8.74188C44.8555 10.4005 45.8668 11.8164 47.2828 12.4233Z" fill="#0A66C2"/>
</svg>
