<svg width="100" height="100" viewBox="0 0 100 100" fill="none" xmlns="http://www.w3.org/2000/svg">
<path opacity="0.3" d="M20.9869 53.953H12.7256V82.8674H20.9869V53.953Z" fill="#FAEC50"/>
<path opacity="0.3" d="M66.4239 42.7589C74.5199 35.2412 82.9464 26.7321 82.9464 22.147C82.9464 19.0904 80.6333 16.7772 77.5766 16.7772C75.7591 16.7772 73.9004 17.6447 72.7025 19.0491L66.4239 26.4429L60.1453 19.0491C58.9475 17.6447 57.0887 16.7772 55.2712 16.7772C52.2145 16.7772 49.9014 19.0904 49.9014 22.147C49.9014 26.7321 58.3279 35.2412 66.4239 42.7589Z" fill="#FAEC50"/>
<path d="M66.4239 53.953C79.1876 42.3459 91.2077 31.4823 91.2077 22.1471C91.2077 14.5054 85.2183 8.51599 77.5767 8.51599C73.2808 8.51599 69.1089 10.54 66.4239 13.6793C63.739 10.54 59.5671 8.51599 55.2712 8.51599C47.6296 8.51599 41.6401 14.5054 41.6401 22.1471C41.6401 31.4823 53.6603 42.3459 66.4239 53.953ZM55.2712 16.7773C57.0887 16.7773 58.9475 17.6447 60.1454 19.0491L66.4239 26.4429L72.7025 19.0491C73.9004 17.6447 75.7592 16.7773 77.5767 16.7773C80.6333 16.7773 82.9465 19.0904 82.9465 22.1471C82.9465 26.7734 74.52 35.2412 66.4239 42.7589C58.3279 35.2412 49.9014 26.7321 49.9014 22.1471C49.9014 19.0904 52.2146 16.7773 55.2712 16.7773Z" fill="#0A66C2"/>
<path d="M78.8158 66.3448H70.5545C70.5545 61.3881 67.4565 56.927 62.8302 55.1921L37.3855 45.6917H4.46436V91.1286H29.2482V85.1805L58.1626 93.1939L91.2077 82.8674V78.7367C91.2077 71.8799 85.6726 66.3448 78.8158 66.3448ZM20.9869 82.8674H12.7256V53.9529H20.9869V82.8674ZM58.0387 84.5609L29.2482 76.5888V53.9529H35.8985L59.9388 62.9164C61.3432 63.4534 62.2932 64.8165 62.2932 66.3448H56.7169C55.3951 66.3448 54.0733 66.1383 52.7928 65.7252L42.9619 62.462L40.3596 70.3102L50.1905 73.5734C52.2971 74.2756 54.4863 74.6474 56.7169 74.6474H78.8158C80.4267 74.6474 81.8724 75.5974 82.5333 76.9606L58.0387 84.5609Z" fill="#0A66C2"/>
</svg>
