<svg width="24" height="21" viewBox="0 0 24 21" fill="none" xmlns="http://www.w3.org/2000/svg">
<path d="M12 4.38867V18.8333" stroke="#0A66C2" stroke-width="3" stroke-linecap="round"/>
<path d="M22 4.38867L22 18.8333" stroke="#0A66C2" stroke-width="3" stroke-linecap="round"/>
<path d="M2 4.38867L2 18.8333" stroke="#0A66C2" stroke-width="3" stroke-linecap="round"/>
<path d="M22.0001 18.8336C22.0001 18.8336 20.889 16.6113 17 16.6113C13.1111 16.6113 12 18.8336 12 18.8336" stroke="#0A66C2" stroke-width="3" stroke-linecap="round"/>
<path d="M12.0001 18.8336C12.0001 18.8336 10.889 16.6113 7.00005 16.6113C3.11112 16.6113 2 18.8336 2 18.8336" stroke="#0A66C2" stroke-width="3" stroke-linecap="round"/>
<path d="M22.0001 4.38887C22.0001 4.38887 20.889 2.16663 17 2.16663C13.1111 2.16663 12 4.38887 12 4.38887" stroke="#0A66C2" stroke-width="3" stroke-linecap="round"/>
<path d="M12.0001 4.38887C12.0001 4.38887 10.889 2.16663 7.00005 2.16663C3.11112 2.16663 2 4.38887 2 4.38887" stroke="#0A66C2" stroke-width="3" stroke-linecap="round"/>
</svg>
