<svg width="98" height="97" viewBox="0 0 98 97" fill="none" xmlns="http://www.w3.org/2000/svg">
<path opacity="0.3" d="M20.7084 60.625V80.8333H77.2917V60.625H20.7084ZM30.8125 76.7917C27.458 76.7917 24.75 74.0838 24.75 70.7292C24.75 67.3746 27.458 64.6667 30.8125 64.6667C34.1671 64.6667 36.875 67.3746 36.875 70.7292C36.875 74.0838 34.1671 76.7917 30.8125 76.7917ZM67.1875 76.7917C63.833 76.7917 61.125 74.0838 61.125 70.7292C61.125 67.3746 63.833 64.6667 67.1875 64.6667C70.5421 64.6667 73.25 67.3746 73.25 70.7292C73.25 74.0838 70.5421 76.7917 67.1875 76.7917Z" fill="#FAEC50"/>
<path d="M38.5321 20.2083L32.8333 25.9071L20.7083 13.7821L26.4071 8.08333L38.5321 20.2083ZM77.2917 13.7821L71.5929 8.08333L59.4679 20.2083L65.1667 25.9071L77.2917 13.7821ZM53.0417 0H44.9583V20.2083H53.0417V0ZM85.375 60.625V92.9583C85.375 95.1812 83.5562 97 81.3333 97H77.2917C75.0687 97 73.25 95.1812 73.25 92.9583V88.9167H24.75V92.9583C24.75 95.1812 22.9312 97 20.7083 97H16.6667C14.4437 97 12.625 95.1812 12.625 92.9583V60.625L21.0317 36.4154C21.8804 34.0308 24.1033 32.3333 26.7708 32.3333H71.2292C73.8967 32.3333 76.16 34.0308 76.9683 36.4154L85.375 60.625ZM23.9821 52.5417H74.0179L69.8146 40.4167H28.1854L23.9821 52.5417ZM77.2917 60.625H20.7083V80.8333H77.2917V60.625ZM30.8125 76.7917C34.1671 76.7917 36.875 74.0837 36.875 70.7292C36.875 67.3746 34.1671 64.6667 30.8125 64.6667C27.4579 64.6667 24.75 67.3746 24.75 70.7292C24.75 74.0837 27.4579 76.7917 30.8125 76.7917ZM67.1875 76.7917C70.5421 76.7917 73.25 74.0837 73.25 70.7292C73.25 67.3746 70.5421 64.6667 67.1875 64.6667C63.8329 64.6667 61.125 67.3746 61.125 70.7292C61.125 74.0837 63.8329 76.7917 67.1875 76.7917Z" fill="#17294A"/>
</svg>
