<svg width="97" height="97" viewBox="0 0 97 97" fill="none" xmlns="http://www.w3.org/2000/svg">
<path opacity="0.3" d="M20.207 60.625V80.8333H76.7904V60.625H20.207ZM30.3112 76.7917C26.9566 76.7917 24.2487 74.0838 24.2487 70.7292C24.2487 67.3746 26.9566 64.6667 30.3112 64.6667C33.6658 64.6667 36.3737 67.3746 36.3737 70.7292C36.3737 74.0838 33.6658 76.7917 30.3112 76.7917ZM66.6862 76.7917C63.3316 76.7917 60.6237 74.0838 60.6237 70.7292C60.6237 67.3746 63.3316 64.6667 66.6862 64.6667C70.0408 64.6667 72.7487 67.3746 72.7487 70.7292C72.7487 74.0838 70.0408 76.7917 66.6862 76.7917Z" fill="#255096"/>
<path d="M38.0321 20.2083L32.3333 25.9071L20.2083 13.7821L25.9071 8.08333L38.0321 20.2083ZM76.7917 13.7821L71.0929 8.08333L58.9679 20.2083L64.6667 25.9071L76.7917 13.7821ZM52.5417 0H44.4583V20.2083H52.5417V0ZM84.875 60.625V92.9583C84.875 95.1812 83.0562 97 80.8333 97H76.7917C74.5687 97 72.75 95.1812 72.75 92.9583V88.9167H24.25V92.9583C24.25 95.1812 22.4312 97 20.2083 97H16.1667C13.9437 97 12.125 95.1812 12.125 92.9583V60.625L20.5317 36.4154C21.3804 34.0308 23.6033 32.3333 26.2708 32.3333H70.7292C73.3967 32.3333 75.66 34.0308 76.4683 36.4154L84.875 60.625ZM23.4821 52.5417H73.5179L69.3146 40.4167H27.6854L23.4821 52.5417ZM76.7917 60.625H20.2083V80.8333H76.7917V60.625ZM30.3125 76.7917C33.6671 76.7917 36.375 74.0837 36.375 70.7292C36.375 67.3746 33.6671 64.6667 30.3125 64.6667C26.9579 64.6667 24.25 67.3746 24.25 70.7292C24.25 74.0837 26.9579 76.7917 30.3125 76.7917ZM66.6875 76.7917C70.0421 76.7917 72.75 74.0837 72.75 70.7292C72.75 67.3746 70.0421 64.6667 66.6875 64.6667C63.3329 64.6667 60.625 67.3746 60.625 70.7292C60.625 74.0837 63.3329 76.7917 66.6875 76.7917Z" fill="#FAEC50"/>
</svg>
