<svg width="31" height="31" viewBox="0 0 31 31" fill="none" xmlns="http://www.w3.org/2000/svg">
<path d="M28.5171 0H2.75537C1.52131 0 0.523438 0.974258 0.523438 2.17879V28.0468C0.523438 29.2513 1.52131 30.2315 2.75537 30.2315H28.5171C29.7512 30.2315 30.7549 29.2514 30.7549 28.0527V2.17879C30.7549 0.974258 29.7512 0 28.5171 0ZM9.49251 25.7617H5.00502V11.3309H9.49251V25.7617ZM7.24877 9.36468C5.80805 9.36468 4.64484 8.20148 4.64484 6.76666C4.64484 5.33185 5.80805 4.16864 7.24877 4.16864C8.68358 4.16864 9.84679 5.33185 9.84679 6.76666C9.84679 8.19557 8.68358 9.36468 7.24877 9.36468ZM26.2852 25.7617H21.8036V18.7471C21.8036 17.0761 21.7741 14.9209 19.4713 14.9209C17.139 14.9209 16.7847 16.7454 16.7847 18.629V25.7617H12.309V11.3309H16.6075V13.303H16.6666C17.263 12.1694 18.7273 10.9707 20.9061 10.9707C25.4467 10.9707 26.2852 13.9585 26.2852 17.8437V25.7617Z" fill="#FAEC50"/>
</svg>
