<svg width="30" height="31" viewBox="0 0 30 31" fill="none" xmlns="http://www.w3.org/2000/svg">
<path d="M14.7239 2.72202C18.613 2.72202 19.0736 2.73973 20.6031 2.81059C22.0246 2.87554 22.7922 3.12353 23.3039 3.33019C23.9805 3.6018 24.4695 3.93246 24.9756 4.45797C25.4873 4.98938 25.8 5.49127 26.0616 6.19392C26.2606 6.72533 26.4994 7.52835 26.5619 8.9986C26.6302 10.5928 26.6472 11.0711 26.6472 15.1039C26.6472 19.1427 26.6302 19.621 26.5619 21.2093C26.4994 22.6854 26.2606 23.4826 26.0616 24.014C25.8 24.7166 25.4816 25.2244 24.9756 25.7499C24.4638 26.2813 23.9805 26.6061 23.3039 26.8777C22.7922 27.0844 22.0189 27.3324 20.6031 27.3973C19.0679 27.4682 18.6074 27.4859 14.7239 27.4859C10.8347 27.4859 10.3742 27.4682 8.84466 27.3973C7.42318 27.3324 6.65558 27.0844 6.14385 26.8777C5.46723 26.6061 4.97824 26.2754 4.4722 25.7499C3.96047 25.2185 3.64774 24.7166 3.38619 24.014C3.18718 23.4826 2.94838 22.6795 2.88583 21.2093C2.8176 19.6151 2.80054 19.1368 2.80054 15.1039C2.80054 11.0652 2.8176 10.5869 2.88583 8.9986C2.94838 7.52245 3.18718 6.72533 3.38619 6.19392C3.64774 5.49127 3.96615 4.98348 4.4722 4.45797C4.98393 3.92655 5.46723 3.6018 6.14385 3.33019C6.65558 3.12353 7.42887 2.87554 8.84466 2.81059C10.3742 2.73973 10.8347 2.72202 14.7239 2.72202ZM14.7239 0C10.7722 0 10.2775 0.0177138 8.72525 0.0885689C7.17869 0.159424 6.11542 0.419226 5.19431 0.791215C4.23339 1.18092 3.42031 1.69462 2.61291 2.53897C1.79982 3.37743 1.30515 4.22178 0.92988 5.21376C0.571668 6.1762 0.321488 7.27446 0.253257 8.88051C0.185026 10.4984 0.167969 11.0121 0.167969 15.1158C0.167969 19.2194 0.185026 19.7331 0.253257 21.3451C0.321488 22.9511 0.571668 24.0553 0.92988 25.0119C1.30515 26.0097 1.79982 26.8541 2.61291 27.6925C3.42031 28.531 4.23339 29.0506 5.18862 29.4344C6.11542 29.8064 7.173 30.0662 8.71957 30.137C10.2718 30.2079 10.7665 30.2256 14.7182 30.2256C18.6699 30.2256 19.1646 30.2079 20.7168 30.137C22.2634 30.0662 23.3267 29.8064 24.2478 29.4344C25.203 29.0506 26.0161 28.531 26.8235 27.6925C27.6309 26.8541 28.1312 26.0097 28.5008 25.0178C28.859 24.0553 29.1092 22.9571 29.1774 21.351C29.2457 19.7391 29.2627 19.2254 29.2627 15.1217C29.2627 11.018 29.2457 10.5043 29.1774 8.89232C29.1092 7.28627 28.859 6.18211 28.5008 5.22556C28.1426 4.22178 27.6479 3.37743 26.8349 2.53897C26.0275 1.70052 25.2144 1.18092 24.2591 0.79712C23.3323 0.425131 22.2748 0.165329 20.7282 0.0944735C19.1703 0.0177138 18.6756 0 14.7239 0Z" fill="#FAEC50"/>
</svg>
