<svg width="31" height="32" viewBox="0 0 31 32" fill="none" xmlns="http://www.w3.org/2000/svg">
<g clip-path="url(#clip0_1019_7237)">
<path d="M28.5191 0.906128H2.75733C1.52327 0.906128 0.525391 1.88039 0.525391 3.08492V28.9529C0.525391 30.1575 1.52327 31.1376 2.75733 31.1376H28.5191C29.7531 31.1376 30.7569 30.1575 30.7569 28.9588V3.08492C30.7569 1.88039 29.7531 0.906128 28.5191 0.906128ZM9.49447 26.6679H5.00698V12.237H9.49447V26.6679ZM7.25072 10.2708C5.81 10.2708 4.6468 9.10761 4.6468 7.67279C4.6468 6.23797 5.81 5.07477 7.25072 5.07477C8.68554 5.07477 9.84874 6.23797 9.84874 7.67279C9.84874 9.1017 8.68554 10.2708 7.25072 10.2708ZM26.2871 26.6679H21.8055V19.6532C21.8055 17.9822 21.776 15.827 19.4732 15.827C17.1409 15.827 16.7866 17.6516 16.7866 19.5351V26.6679H12.311V12.237H16.6095V14.2092H16.6685C17.2649 13.0755 18.7292 11.8769 20.908 11.8769C25.4487 11.8769 26.2871 14.8646 26.2871 18.7498V26.6679V26.6679Z" fill="#0A66C2"/>
</g>
<defs>
<clipPath id="clip0_1019_7237">
<rect width="30.2315" height="30.2315" fill="white" transform="translate(0.525391 0.906128)"/>
</clipPath>
</defs>
</svg>
