<svg width="35" height="28" viewBox="0 0 35 28" fill="none" xmlns="http://www.w3.org/2000/svg">
<path d="M4.97353 20.7961C3.43453 18.1305 4.35032 14.7127 7.01595 13.1737L13.2513 9.57372L11.5413 6.61191L5.30595 10.2119C1.00353 12.6959 -0.472281 18.2037 2.01172 22.5061C4.49572 26.8086 10.0035 28.2844 14.3059 25.8004L20.5413 22.2004L18.8313 19.2386L12.5959 22.8386C9.93032 24.3776 6.51253 23.4618 4.97353 20.7961ZM12.2648 18.665L24.7356 11.465L22.9356 8.3473L10.4648 15.5473L12.2648 18.665ZM20.8944 1.21191L14.659 4.81191L16.369 7.77372L22.6044 4.17372C25.27 2.63472 28.6878 3.55052 30.2268 6.21614C31.7658 8.88177 30.85 12.2996 28.1844 13.8386L21.949 17.4386L23.659 20.4004L29.8944 16.8004C34.1968 14.3164 35.6726 8.80856 33.1886 4.50614C30.7046 0.203728 25.1968 -1.27209 20.8944 1.21191Z" fill="#0A66C2"/>
</svg>
