<svg width="48" height="50" viewBox="0 0 48 50" fill="none" xmlns="http://www.w3.org/2000/svg">
<path d="M38.1967 22.163C30.4605 17.3772 17.6998 16.9372 10.3146 19.272C9.12838 19.6468 7.8744 18.9496 7.51523 17.7141C7.15585 16.478 7.82454 15.1724 9.01123 14.797C17.4892 12.1165 31.5819 12.6341 40.488 18.1411C41.555 18.8009 41.9045 20.2359 41.2723 21.3451C40.6395 22.4563 39.2609 22.8228 38.1967 22.163ZM37.9433 29.2512C37.4006 30.1687 36.2489 30.4564 35.3694 29.8931C28.92 25.7635 19.0849 24.567 11.4545 26.9797C10.4651 27.2909 9.41984 26.7101 9.11935 25.6811C8.9761 25.1864 9.027 24.6528 9.2609 24.1971C9.4948 23.7415 9.8926 23.4011 10.3671 23.2505C19.0836 20.4949 29.9199 21.8294 37.3277 26.5715C38.2072 27.1358 38.4841 28.3359 37.9433 29.2512ZM35.0065 36.0585C34.9043 36.2334 34.77 36.3856 34.6113 36.5064C34.4525 36.6271 34.2725 36.7141 34.0814 36.7622C33.8904 36.8104 33.6921 36.8188 33.4979 36.7871C33.3037 36.7553 33.1174 36.6839 32.9498 36.5771C27.314 32.9891 20.2202 32.1788 11.8661 34.1666C11.6747 34.2122 11.4765 34.2181 11.2829 34.1839C11.0893 34.1497 10.9041 34.0761 10.7378 33.9673C10.5715 33.8585 10.4274 33.7167 10.3138 33.5499C10.2001 33.3831 10.1191 33.1946 10.0754 32.9952C10.0314 32.7957 10.0256 32.5892 10.0583 32.3874C10.0911 32.1855 10.1617 31.9924 10.2662 31.8191C10.3707 31.6458 10.5069 31.4956 10.6672 31.3772C10.8275 31.2589 11.0086 31.1746 11.2002 31.1292C20.3423 28.9525 28.1843 29.8893 34.5102 33.9158C34.6779 34.0225 34.8238 34.1626 34.9395 34.3281C35.0552 34.4935 35.1385 34.6811 35.1846 34.88C35.2307 35.079 35.2388 35.2855 35.2082 35.4877C35.1777 35.6899 35.109 35.8839 35.0065 36.0585ZM23.9996 0C10.7454 0 0 11.1927 0 24.9996C0 38.8078 10.7454 50 23.9998 50C37.2548 50 48 38.8078 48 24.9996C48 11.1929 37.2548 0 23.9996 0Z" fill="#0A66C2"/>
</svg>
