<svg width="48" height="50" viewBox="0 0 48 50" fill="none" xmlns="http://www.w3.org/2000/svg">
<path fill-rule="evenodd" clip-rule="evenodd" d="M3.34003 19.8466C5.18468 19.8466 6.68006 21.4043 6.68006 23.3258V26.6751C6.68006 28.5966 5.18468 30.1543 3.34003 30.1543C1.49538 30.1543 0 28.5966 0 26.6751V23.3258C0 21.4043 1.49538 19.8466 3.34003 19.8466Z" fill="#0A66C2"/>
<path fill-rule="evenodd" clip-rule="evenodd" d="M44.66 19.8466C46.5046 19.8466 48 21.4043 48 23.3258V26.6751C48 28.5966 46.5046 30.1543 44.66 30.1543C42.8153 30.1543 41.3199 28.5966 41.3199 26.6751V23.3258C41.3199 21.4043 42.8153 19.8466 44.66 19.8466Z" fill="#0A66C2"/>
<path fill-rule="evenodd" clip-rule="evenodd" d="M13.67 9.79893C15.5147 9.79893 17.01 11.3566 17.01 13.2781V24.2332C17.01 26.1547 15.5147 27.7124 13.67 27.7124C11.8254 27.7124 10.33 26.1547 10.33 24.2332V13.2781C10.33 11.3566 11.8254 9.79893 13.67 9.79893ZM13.67 29.8948C15.5147 29.8948 17.01 31.4525 17.01 33.374V36.7234C17.01 38.6449 15.5147 40.2025 13.67 40.2025C11.8254 40.2025 10.33 38.6449 10.33 36.7234V33.374C10.33 31.4525 11.8254 29.8948 13.67 29.8948Z" fill="#0A66C2"/>
<path fill-rule="evenodd" clip-rule="evenodd" d="M34.33 9.79771C36.1746 9.79771 37.67 11.3554 37.67 13.2769V16.6262C37.67 18.5477 36.1746 20.1054 34.33 20.1054C32.4853 20.1054 30.99 18.5477 30.99 16.6262V13.2769C30.99 11.3554 32.4853 9.79771 34.33 9.79771ZM34.33 22.2884C36.1746 22.2884 37.67 23.8461 37.67 25.7676V36.7226C37.67 38.6441 36.1746 40.2018 34.33 40.2018C32.4853 40.2018 30.99 38.6441 30.99 36.7226V25.7676C30.99 23.8461 32.4853 22.2884 34.33 22.2884Z" fill="#0A66C2"/>
<path fill-rule="evenodd" clip-rule="evenodd" d="M24 -0.00012207C25.8447 -0.00012207 27.34 1.55756 27.34 3.47906V6.8284C27.34 8.74989 25.8447 10.3076 24 10.3076C22.1554 10.3076 20.66 8.74989 20.66 6.8284V3.47906C20.66 1.55756 22.1554 -0.00012207 24 -0.00012207ZM24 12.5897C25.8447 12.5897 27.34 14.1474 27.34 16.0689V33.9318C27.34 35.8533 25.8447 37.411 24 37.411C22.1554 37.411 20.66 35.8533 20.66 33.9318V16.0689C20.66 14.1474 22.1554 12.5897 24 12.5897ZM24 39.6922C25.8447 39.6922 27.34 41.2499 27.34 43.1714V46.5207C27.34 48.4422 25.8447 49.9999 24 49.9999C22.1554 49.9999 20.66 48.4422 20.66 46.5207V43.1714C20.66 41.2499 22.1554 39.6922 24 39.6922Z" fill="#0A66C2"/>
</svg>
