<svg width="34" height="35" viewBox="0 0 34 35" fill="none" xmlns="http://www.w3.org/2000/svg">
<path fill-rule="evenodd" clip-rule="evenodd" d="M2.36585 13.8927C3.67248 13.8927 4.73171 14.9831 4.73171 16.3281V18.6727C4.73171 20.0177 3.67248 21.1081 2.36585 21.1081C1.05923 21.1081 0 20.0177 0 18.6727V16.3281C0 14.9831 1.05923 13.8927 2.36585 13.8927Z" fill="#06022F"/>
<path fill-rule="evenodd" clip-rule="evenodd" d="M31.6341 13.8927C32.9408 13.8927 34 14.9831 34 16.3281V18.6727C34 20.0177 32.9408 21.1081 31.6341 21.1081C30.3275 21.1081 29.2683 20.0177 29.2683 18.6727V16.3281C29.2683 14.9831 30.3275 13.8927 31.6341 13.8927Z" fill="#06022F"/>
<path fill-rule="evenodd" clip-rule="evenodd" d="M9.68293 6.85934C10.9896 6.85934 12.0488 7.94972 12.0488 9.29477V16.9633C12.0488 18.3084 10.9896 19.3987 9.68293 19.3987C8.3763 19.3987 7.31707 18.3084 7.31707 16.9633V9.29477C7.31707 7.94972 8.3763 6.85934 9.68293 6.85934ZM9.68293 20.9265C10.9896 20.9265 12.0488 22.0169 12.0488 23.3619V25.7064C12.0488 27.0515 10.9896 28.1419 9.68293 28.1419C8.3763 28.1419 7.31707 27.0515 7.31707 25.7064V23.3619C7.31707 22.0169 8.3763 20.9265 9.68293 20.9265Z" fill="#06022F"/>
<path fill-rule="evenodd" clip-rule="evenodd" d="M24.3171 6.85848C25.6237 6.85848 26.6829 7.94886 26.6829 9.29391V11.6384C26.6829 12.9835 25.6237 14.0739 24.3171 14.0739C23.0104 14.0739 21.9512 12.9835 21.9512 11.6384V9.29391C21.9512 7.94886 23.0104 6.85848 24.3171 6.85848ZM24.3171 15.602C25.6237 15.602 26.6829 16.6923 26.6829 18.0374V25.7059C26.6829 27.051 25.6237 28.1413 24.3171 28.1413C23.0104 28.1413 21.9512 27.051 21.9512 25.7059V18.0374C21.9512 16.6923 23.0104 15.602 24.3171 15.602Z" fill="#06022F"/>
<path fill-rule="evenodd" clip-rule="evenodd" d="M17 0C18.3066 0 19.3659 1.09038 19.3659 2.43543V4.77996C19.3659 6.12501 18.3066 7.21539 17 7.21539C15.6934 7.21539 14.6341 6.12501 14.6341 4.77996V2.43543C14.6341 1.09038 15.6934 0 17 0ZM17 8.8129C18.3066 8.8129 19.3659 9.90328 19.3659 11.2483V23.7524C19.3659 25.0974 18.3066 26.1878 17 26.1878C15.6934 26.1878 14.6341 25.0974 14.6341 23.7524V11.2483C14.6341 9.90328 15.6934 8.8129 17 8.8129ZM17 27.7846C18.3066 27.7846 19.3659 28.875 19.3659 30.22V32.5646C19.3659 33.9096 18.3066 35 17 35C15.6934 35 14.6341 33.9096 14.6341 32.5646V30.22C14.6341 28.875 15.6934 27.7846 17 27.7846Z" fill="#06022F"/>
</svg>
