<svg width="34" height="35" viewBox="0 0 34 35" fill="none" xmlns="http://www.w3.org/2000/svg">
<path d="M27.056 15.5141C21.5762 12.164 12.5374 11.856 7.3062 13.4904C6.46593 13.7528 5.5777 13.2647 5.32329 12.3999C5.06873 11.5346 5.54238 10.6207 6.38296 10.3579C12.3882 8.48152 22.3705 8.84388 28.679 12.6988C29.4348 13.1607 29.6823 14.1651 29.2346 14.9416C28.7863 15.7194 27.8096 15.976 27.0558 15.5141M26.8765 20.4758C26.4921 21.1181 25.6763 21.3195 25.0533 20.9251C20.485 18.0344 13.5185 17.1969 8.11359 18.8858C7.41278 19.1036 6.67238 18.6971 6.45954 17.9768C6.35807 17.6305 6.39413 17.2569 6.5598 16.938C6.72548 16.619 7.00726 16.3807 7.34335 16.2753C13.5176 14.3465 21.1933 15.2806 26.4405 18.6001C27.0635 18.995 27.2596 19.8351 26.8765 20.4758ZM24.7963 25.241C24.7239 25.3634 24.6288 25.4699 24.5163 25.5545C24.4039 25.639 24.2763 25.6998 24.141 25.7336C24.0057 25.7673 23.8652 25.7732 23.7277 25.7509C23.5901 25.7287 23.4582 25.6788 23.3394 25.604C19.3474 23.0924 14.3227 22.5252 8.40515 23.9166C8.26956 23.9485 8.12919 23.9527 7.99206 23.9287C7.85493 23.9048 7.72372 23.8533 7.60593 23.7771C7.48814 23.701 7.38608 23.6017 7.30558 23.4849C7.22507 23.3682 7.16771 23.2362 7.13675 23.0966C7.10557 22.957 7.10146 22.8124 7.12465 22.6711C7.14783 22.5299 7.19786 22.3947 7.27187 22.2734C7.34588 22.1521 7.44241 22.0469 7.55594 21.9641C7.66947 21.8812 7.79776 21.8222 7.93348 21.7904C14.4092 20.2667 19.9639 20.9225 24.4448 23.7411C24.5635 23.8158 24.6669 23.9138 24.7488 24.0296C24.8308 24.1455 24.8898 24.2767 24.9224 24.416C24.9551 24.5553 24.9608 24.6999 24.9392 24.8414C24.9176 24.983 24.8691 25.1187 24.7965 25.241M16.9997 0C7.61131 0 0 7.83486 0 17.4997C0 27.1655 7.61131 35 16.9998 35C26.3888 35 34 27.1655 34 17.4997C34 7.83502 26.389 0 16.9998 0" fill="#06022F"/>
</svg>
