<svg width="34" height="35" viewBox="0 0 34 35" fill="none" xmlns="http://www.w3.org/2000/svg">
<path fill-rule="evenodd" clip-rule="evenodd" d="M33.0668 30.3333C32.7503 31.1967 32.019 32.41 30.9713 33.2733C30.371 33.7633 29.6507 34.2417 28.6684 34.5567C27.6207 34.895 26.3219 35 24.7067 35H9.97278C8.35751 35 7.06966 34.8833 6.01101 34.5567C5.02875 34.2417 4.30843 33.775 3.70816 33.2733C2.67133 32.4217 1.92918 31.1967 1.61267 30.3333C0.979664 28.595 0.96875 26.6233 0.96875 25.375V9.625C0.96875 8.37667 0.979664 6.405 1.61267 4.66667C1.92918 3.80333 2.66042 2.59 3.70816 1.72667C4.30843 1.23667 5.02875 0.758333 6.01101 0.443333C7.06966 0.116667 8.35751 0 9.97278 0H24.7067C26.3219 0 27.6098 0.116667 28.6684 0.443333C29.6507 0.758333 30.371 1.225 30.9713 1.72667C32.0081 2.57833 32.7503 3.80333 33.0668 4.66667C33.7107 6.405 33.7107 8.38833 33.7107 9.625V25.375C33.7107 26.6233 33.6998 28.595 33.0668 30.3333Z" fill="#06022F"/>
<path d="M20.2812 21.1284C20.2365 20.7084 20.1026 20.4051 19.8348 20.1251C19.3326 19.5768 18.451 19.2151 17.4132 19.2151C16.3754 19.2151 15.4938 19.5651 14.9916 20.1251C14.7349 20.4168 14.5899 20.7084 14.5452 21.1284C14.4559 21.9451 14.5117 22.6451 14.601 23.7768C14.6903 24.8501 14.8577 26.2851 15.0697 27.7318C15.2259 28.7701 15.3487 29.3301 15.4603 29.7268C15.65 30.3801 16.3307 30.9401 17.4132 30.9401C18.4957 30.9401 19.1875 30.3684 19.3661 29.7268C19.4777 29.3301 19.6004 28.7701 19.7567 27.7318C19.9687 26.2734 20.1361 24.8501 20.2254 23.7768C20.3258 22.6451 20.3704 21.9451 20.2812 21.1284Z" fill="white"/>
<path d="M20.1584 15.1786C20.1584 16.7653 18.9309 18.0486 17.4132 18.0486C15.8955 18.0486 14.668 16.7653 14.668 15.1786C14.668 13.5919 15.8955 12.3086 17.4132 12.3086C18.9309 12.3086 20.1584 13.6036 20.1584 15.1786Z" fill="white"/>
<path d="M17.3794 3.87355C10.9739 3.89689 5.72894 9.33355 5.63967 16.0302C5.57271 21.4552 8.88706 26.0986 13.5182 27.8019C13.6298 27.8486 13.7414 27.7436 13.7302 27.6269C13.6745 27.2069 13.6075 26.7869 13.5629 26.3669C13.5405 26.2152 13.4513 26.0986 13.3285 26.0286C9.66822 24.3602 7.11271 20.5219 7.15735 16.0769C7.21315 10.2436 11.7662 5.49522 17.3347 5.44855C23.0372 5.40189 27.6907 10.2319 27.6907 16.1819C27.6907 20.5802 25.1463 24.3602 21.5195 26.0286C21.3856 26.0869 21.2963 26.2152 21.2852 26.3669C21.2294 26.7869 21.1736 27.2069 21.1178 27.6269C21.0955 27.7552 21.2182 27.8486 21.3298 27.8019C25.9163 26.1219 29.2084 21.5486 29.2084 16.1819C29.186 9.39189 23.8853 3.86189 17.3794 3.87355Z" fill="white"/>
<path d="M17.111 7.95684C12.9374 8.12018 9.5896 11.7252 9.5338 16.0885C9.50032 18.9585 10.8729 21.5018 12.9821 23.0068C13.0825 23.0768 13.2276 22.9952 13.2276 22.8668C13.1941 22.3652 13.1941 21.9218 13.2164 21.4552C13.2276 21.3035 13.1718 21.1635 13.0602 21.0585C11.7768 19.7985 10.9957 18.0018 11.0403 16.0185C11.1296 12.5185 13.819 9.67184 17.1668 9.53184C20.8048 9.38018 23.7955 12.4368 23.7955 16.1935C23.7955 18.1068 23.0144 19.8335 21.7757 21.0585C21.6753 21.1635 21.6195 21.3035 21.6195 21.4552C21.6418 21.9102 21.6306 22.3535 21.6083 22.8552C21.5971 22.9835 21.7422 23.0768 21.8538 22.9952C23.9295 21.5135 25.3021 19.0052 25.3021 16.1818C25.3132 11.5385 21.5971 7.77018 17.111 7.95684Z" fill="white"/>
</svg>
