<svg width="50" height="50" viewBox="0 0 50 50" fill="none" xmlns="http://www.w3.org/2000/svg">
<path fill-rule="evenodd" clip-rule="evenodd" d="M49.0167 43.3332C48.5333 44.5665 47.4167 46.2999 45.8167 47.5332C44.9 48.2332 43.8 48.9165 42.3 49.3665C40.7 49.8499 38.7167 49.9999 36.25 49.9999H13.75C11.2833 49.9999 9.31667 49.8332 7.7 49.3665C6.2 48.9165 5.1 48.2499 4.18333 47.5332C2.6 46.3165 1.46667 44.5665 0.983333 43.3332C0.0166667 40.8499 0 38.0332 0 36.2499V13.7499C0 11.9665 0.0166667 9.14988 0.983333 6.66654C1.46667 5.43321 2.58333 3.69988 4.18333 2.46654C5.1 1.76654 6.2 1.08321 7.7 0.633211C9.31667 0.166545 11.2833 -0.00012207 13.75 -0.00012207H36.25C38.7167 -0.00012207 40.6833 0.166545 42.3 0.633211C43.8 1.08321 44.9 1.74988 45.8167 2.46654C47.4 3.68321 48.5333 5.43321 49.0167 6.66654C50 9.14988 50 11.9832 50 13.7499V36.2499C50 38.0332 49.9833 40.8499 49.0167 43.3332Z" fill="#0A66C2"/>
<path d="M29.4905 30.1834C29.4223 29.5834 29.2178 29.1501 28.8088 28.7501C28.042 27.9667 26.6957 27.4501 25.1108 27.4501C23.526 27.4501 22.1797 27.9501 21.4128 28.7501C21.0209 29.1667 20.7993 29.5834 20.7312 30.1834C20.5948 31.3501 20.68 32.3501 20.8164 33.9667C20.9527 35.5001 21.2083 37.5501 21.5321 39.6167C21.7707 41.1001 21.9582 41.9001 22.1286 42.4667C22.4183 43.4001 23.4578 44.2001 25.1108 44.2001C26.7639 44.2001 27.8204 43.3834 28.0931 42.4667C28.2635 41.9001 28.451 41.1001 28.6895 39.6167C29.0133 37.5334 29.269 35.5001 29.4053 33.9667C29.5587 32.3501 29.6268 31.3501 29.4905 30.1834Z" fill="white"/>
<path d="M29.3024 21.6834C29.3024 23.95 27.4278 25.7834 25.1102 25.7834C22.7925 25.7834 20.918 23.95 20.918 21.6834C20.918 19.4167 22.7925 17.5834 25.1102 17.5834C27.4278 17.5834 29.3024 19.4334 29.3024 21.6834Z" fill="white"/>
<path d="M25.06 5.53335C15.2782 5.56668 7.26871 13.3333 7.13238 22.9C7.03013 30.65 12.0915 37.2833 19.1637 39.7167C19.3341 39.7833 19.5045 39.6334 19.4875 39.4667C19.4022 38.8667 19.3 38.2667 19.2318 37.6667C19.1977 37.45 19.0614 37.2833 18.874 37.1833C13.2844 34.8 9.38186 29.3167 9.45002 22.9667C9.53523 14.6334 16.4882 7.85002 24.9919 7.78335C33.7 7.71668 40.8063 14.6167 40.8063 23.1167C40.8063 29.4 36.9209 34.8 31.3824 37.1833C31.1779 37.2667 31.0416 37.45 31.0245 37.6667C30.9393 38.2667 30.8541 38.8667 30.7689 39.4667C30.7348 39.65 30.9223 39.7833 31.0927 39.7167C38.0967 37.3167 43.124 30.7833 43.124 23.1167C43.0899 13.4167 34.9952 5.51668 25.06 5.53335Z" fill="white"/>
<path d="M24.6502 11.3666C18.2767 11.5999 13.1642 16.7499 13.079 22.9832C13.0279 27.0832 15.124 30.7166 18.3449 32.8666C18.4982 32.9666 18.7198 32.8499 18.7198 32.6666C18.6686 31.9499 18.6686 31.3166 18.7027 30.6499C18.7198 30.4332 18.6346 30.2332 18.4641 30.0832C16.5044 28.2832 15.3115 25.7166 15.3796 22.8832C15.516 17.8832 19.623 13.8166 24.7354 13.6166C30.2909 13.3999 34.858 17.7666 34.858 23.1332C34.858 25.8666 33.6651 28.3332 31.7735 30.0832C31.6202 30.2332 31.535 30.4332 31.535 30.6499C31.569 31.2999 31.552 31.9332 31.5179 32.6499C31.5009 32.8332 31.7224 32.9666 31.8928 32.8499C35.0625 30.7332 37.1586 27.1499 37.1586 23.1166C37.1757 16.4832 31.5009 11.0999 24.6502 11.3666Z" fill="white"/>
</svg>
