<svg width="156" height="36" viewBox="0 0 156 36" fill="none" xmlns="http://www.w3.org/2000/svg">
<path d="M153.471 24.6417H2.52855C1.13441 24.6417 0 23.3519 0 21.778V2.85711C0 1.28093 1.13441 0 2.52855 0H153.471C154.866 0 156 1.28093 156 2.85711V21.778C156 23.3519 154.866 24.6417 153.471 24.6417ZM2.52855 0.368516C1.33643 0.368516 0.368516 1.4785 0.368516 2.85711V21.778C0.368516 23.1499 1.33643 24.2666 2.52855 24.2666H153.471C154.661 24.2666 155.631 23.1566 155.631 21.778V2.85711C155.631 1.48516 154.661 0.368516 153.471 0.368516H2.52855Z" fill="white"/>
<path d="M18.3949 4.25781H15.5955C15.5808 4.25831 15.5665 4.26324 15.5547 4.27195C15.5428 4.28067 15.5338 4.29276 15.5289 4.30665L13.6774 9.82107L11.8326 4.33107V4.30665C11.8277 4.29276 11.8187 4.28067 11.8069 4.27195C11.795 4.26324 11.7808 4.25831 11.766 4.25781H8.95776C8.93892 4.25781 8.92085 4.2653 8.90753 4.27862C8.8942 4.29194 8.88672 4.31001 8.88672 4.32885V20.2372C8.88672 20.256 8.8942 20.2741 8.90753 20.2874C8.92085 20.3008 8.93892 20.3082 8.95776 20.3082H11.6772C11.6865 20.3083 11.6956 20.3064 11.7041 20.3028C11.7126 20.2992 11.7203 20.2939 11.7267 20.2873C11.7331 20.2807 11.7381 20.2728 11.7415 20.2642C11.7448 20.2556 11.7463 20.2464 11.746 20.2372V11.284L13.562 16.6852C13.5663 16.6995 13.5751 16.712 13.5871 16.7208C13.5992 16.7296 13.6137 16.7342 13.6286 16.7341H13.724C13.7392 16.734 13.7539 16.7293 13.7662 16.7206C13.7785 16.7118 13.7878 16.6995 13.7929 16.6852L15.6066 11.284V20.2372C15.6066 20.256 15.6141 20.2741 15.6274 20.2874C15.6407 20.3008 15.6588 20.3082 15.6776 20.3082H18.3949C18.4137 20.3082 18.4318 20.3008 18.4451 20.2874C18.4584 20.2741 18.4659 20.256 18.4659 20.2372V4.32885C18.4659 4.31001 18.4584 4.29194 18.4451 4.27862C18.4318 4.2653 18.4137 4.25781 18.3949 4.25781Z" fill="white"/>
<path d="M24.4892 4.03149C21.7542 4.03149 20.1758 6.88194 20.1758 11.8769V12.6916C20.1758 17.6755 21.7475 20.5348 24.4892 20.5348C27.2309 20.5348 28.8048 17.6755 28.8048 12.6916V11.8769C28.8048 6.88194 27.2309 4.03149 24.4892 4.03149ZM23.1927 12.6894V11.8769C23.1927 8.39819 23.6056 6.77095 24.4892 6.77095C25.3727 6.77095 25.7857 8.38931 25.7857 11.8769V12.6916C25.7857 16.1681 25.375 17.7976 24.4892 17.7976C23.6034 17.7976 23.1927 16.1681 23.1927 12.6916V12.6894Z" fill="white"/>
<path d="M38.7384 20.2794C38.7451 20.2702 38.7496 20.2597 38.7515 20.2485C38.7535 20.2373 38.7528 20.2259 38.7495 20.215L36.6294 13.8148C37.8327 12.8691 38.4676 11.4172 38.4676 9.6124V9.41038C38.4676 7.68546 37.9903 6.36235 37.0512 5.47658C36.1899 4.66851 34.9867 4.25781 33.4726 4.25781H30.5867C30.5678 4.25781 30.5498 4.2653 30.5364 4.27862C30.5231 4.29194 30.5156 4.31001 30.5156 4.32885V20.2372C30.5156 20.256 30.5231 20.2741 30.5364 20.2874C30.5498 20.3008 30.5678 20.3082 30.5867 20.3082H33.4194C33.4382 20.3082 33.4563 20.3008 33.4696 20.2874C33.4829 20.2741 33.4904 20.256 33.4904 20.2372V14.7872H33.8256L35.5883 20.235V20.2594C35.5929 20.2735 35.6018 20.2857 35.6137 20.2945C35.6257 20.3033 35.6401 20.3081 35.6549 20.3082H38.6718C38.6845 20.3099 38.6974 20.308 38.7091 20.303C38.7208 20.2979 38.7309 20.2897 38.7384 20.2794ZM33.4904 7.05054C34.8557 7.06386 35.4884 7.82976 35.4884 9.45478V9.63682C35.4884 11.2396 34.8068 12.0788 33.5148 12.0788H33.486L33.4904 7.05054Z" fill="white"/>
<path d="M58.1872 20.2818C58.1937 20.2738 58.1985 20.2646 58.2011 20.2546C58.2038 20.2447 58.2044 20.2343 58.2027 20.2241L55.1836 4.3002V4.27134C55.1805 4.25527 55.172 4.24074 55.1594 4.23023C55.1469 4.21971 55.1311 4.21384 55.1148 4.21362H52.1089C52.0925 4.21384 52.0768 4.21971 52.0642 4.23023C52.0517 4.24074 52.0432 4.25527 52.0401 4.27134L49.0165 20.2241C49.0149 20.2342 49.0155 20.2446 49.0182 20.2545C49.0209 20.2644 49.0256 20.2736 49.0321 20.2816C49.0386 20.2895 49.0467 20.296 49.0559 20.3007C49.065 20.3053 49.0751 20.308 49.0853 20.3085H51.8314C51.8481 20.3081 51.8641 20.302 51.8767 20.291C51.8893 20.28 51.8976 20.265 51.9002 20.2485L52.3886 17.1627H54.7174L55.228 20.2485C55.2306 20.2654 55.2393 20.2807 55.2523 20.2917C55.2654 20.3027 55.282 20.3087 55.299 20.3085H58.1317C58.1424 20.3088 58.1531 20.3066 58.1627 20.3019C58.1724 20.2973 58.1808 20.2904 58.1872 20.2818ZM53.563 10.0078L54.2756 14.461H52.8348L53.563 10.0078Z" fill="white"/>
<path d="M67.5829 4.25781H64.8234C64.8046 4.25781 64.7865 4.2653 64.7732 4.27862C64.7599 4.29194 64.7524 4.31001 64.7524 4.32885V11.7436L62.1595 4.30443C62.1545 4.29078 62.1454 4.27899 62.1335 4.27065C62.1216 4.26232 62.1074 4.25784 62.0929 4.25781H59.4578C59.4389 4.25781 59.4208 4.2653 59.4075 4.27862C59.3942 4.29194 59.3867 4.31001 59.3867 4.32885V20.2372C59.3867 20.256 59.3942 20.2741 59.4075 20.2874C59.4208 20.3008 59.4389 20.3082 59.4578 20.3082H62.2216C62.2405 20.3082 62.2585 20.3008 62.2719 20.2874C62.2852 20.2741 62.2927 20.256 62.2927 20.2372V12.4318L65.0121 20.255C65.0171 20.2686 65.0262 20.2804 65.0381 20.2887C65.05 20.2971 65.0642 20.3016 65.0787 20.3016H67.5829C67.6017 20.3016 67.6198 20.2941 67.6331 20.2808C67.6464 20.2675 67.6539 20.2494 67.6539 20.2305V4.32885C67.6539 4.31001 67.6464 4.29194 67.6331 4.27862C67.6198 4.2653 67.6017 4.25781 67.5829 4.25781Z" fill="white"/>
<path d="M80.918 20.606L82.9714 19.3473C82.9794 19.3427 82.9864 19.3366 82.9919 19.3293C82.9975 19.322 83.0015 19.3136 83.0038 19.3047C83.0061 19.2958 83.0065 19.2866 83.0052 19.2775C83.0038 19.2684 83.0006 19.2597 82.9959 19.2518L81.695 17.0274C82.2332 15.7349 82.5716 14.3681 82.6984 12.9737V12.9404C82.6999 12.9227 82.6948 12.905 82.6842 12.8907C82.6736 12.8764 82.6581 12.8665 82.6407 12.8627L80.4429 12.4654C80.4241 12.4632 80.4052 12.4679 80.3896 12.4787C80.382 12.4842 80.3755 12.4911 80.3705 12.4991C80.3656 12.5071 80.3622 12.516 80.3608 12.5253L80.3075 12.9027C80.2187 13.5265 80.1521 14.0127 80.0855 14.3901L78.8379 12.0147C80.3674 10.6827 81.0578 9.36849 81.0578 7.73681V7.57697C81.0578 5.4569 79.7258 4.02501 77.7612 4.02501C77.301 4.01827 76.8445 4.10848 76.4215 4.28977C75.9985 4.47107 75.6184 4.73939 75.3059 5.07728C74.6879 5.77039 74.3534 6.67071 74.369 7.59917V7.77011C74.369 8.97112 74.8885 10.07 75.6722 11.3465C74.0205 12.7984 73.2812 14.2325 73.2812 16.0284V16.1638C73.2812 18.6613 74.9618 20.5461 77.1906 20.5461C77.7408 20.5709 78.2893 20.4704 78.795 20.2524C79.3007 20.0344 79.7503 19.7044 80.1099 19.2874L80.8247 20.5927C80.8294 20.601 80.8358 20.6083 80.8434 20.614C80.8511 20.6198 80.8598 20.6238 80.8691 20.626H80.8869C80.8989 20.6224 80.9097 20.6155 80.918 20.606ZM77.5236 17.9243C76.6823 17.9243 76.1384 17.1673 76.1384 15.9929V15.8131C76.1663 14.9918 76.4461 14.199 76.9398 13.5421L78.8223 17.2672C78.6718 17.4701 78.4761 17.6352 78.2507 17.7493C78.0252 17.8633 77.7763 17.9233 77.5236 17.9243ZM77.699 6.46255C78.163 6.46255 78.4738 6.92874 78.4738 7.62359V7.80341C78.49 8.60288 78.1891 9.37627 77.6368 9.95457C77.1307 8.96668 76.9242 8.32733 76.9242 7.75901V7.53701C76.9309 6.89322 77.2417 6.46255 77.699 6.46255Z" fill="white"/>
<path d="M97.8558 4.25781H95.0564C95.0417 4.25831 95.0275 4.26324 95.0156 4.27195C95.0037 4.28067 94.9947 4.29276 94.9898 4.30665L93.1384 9.82107L91.2936 4.33107V4.30665C91.2889 4.29259 91.28 4.28032 91.2681 4.27156C91.2562 4.2628 91.2418 4.258 91.227 4.25781H88.4187C88.3999 4.25781 88.3818 4.2653 88.3685 4.27862C88.3551 4.29194 88.3477 4.31001 88.3477 4.32885V20.2372C88.3477 20.256 88.3551 20.2741 88.3685 20.2874C88.3818 20.3008 88.3999 20.3082 88.4187 20.3082H91.1382C91.1474 20.3083 91.1565 20.3064 91.165 20.3028C91.1735 20.2992 91.1812 20.2939 91.1876 20.2873C91.1941 20.2807 91.1991 20.2728 91.2024 20.2642C91.2057 20.2556 91.2073 20.2464 91.207 20.2372V11.284L93.0185 16.6608V16.6852C93.0228 16.6995 93.0316 16.712 93.0437 16.7208C93.0557 16.7296 93.0702 16.7342 93.0851 16.7341H93.1806C93.1957 16.734 93.2104 16.7293 93.2227 16.7206C93.235 16.7118 93.2443 16.6995 93.2494 16.6852L95.0631 11.284V20.2372C95.0631 20.256 95.0706 20.2741 95.0839 20.2874C95.0972 20.3008 95.1153 20.3082 95.1341 20.3082H97.8514C97.8702 20.3082 97.8883 20.3008 97.9016 20.2874C97.9149 20.2741 97.9224 20.256 97.9224 20.2372V4.32885C97.9225 4.31076 97.9156 4.29333 97.9032 4.28013C97.8908 4.26692 97.8739 4.25894 97.8558 4.25781Z" fill="white"/>
<path d="M103.95 4.03149C101.208 4.03149 99.6367 6.89082 99.6367 11.8769V12.6916C99.6367 17.6755 101.208 20.5348 103.95 20.5348C106.692 20.5348 108.266 17.6755 108.266 12.6916V11.8769C108.266 6.88194 106.692 4.03149 103.95 4.03149ZM102.654 12.6894V11.8769C102.654 8.39819 103.067 6.77095 103.95 6.77095C104.834 6.77095 105.247 8.38931 105.247 11.8769V12.6916C105.247 16.1681 104.836 17.7976 103.95 17.7976C103.064 17.7976 102.654 16.1681 102.654 12.6916V12.6894Z" fill="white"/>
<path d="M118.199 20.2794C118.206 20.2702 118.211 20.2597 118.212 20.2485C118.214 20.2373 118.214 20.2259 118.21 20.215L116.09 13.8148C117.294 12.8691 117.929 11.4172 117.929 9.6124V9.41038C117.929 7.68546 117.451 6.36235 116.512 5.47658C115.651 4.66851 114.448 4.25781 112.934 4.25781H110.048C110.029 4.25781 110.011 4.2653 109.997 4.27862C109.984 4.29194 109.977 4.31001 109.977 4.32885V20.2372C109.977 20.256 109.984 20.2741 109.997 20.2874C110.011 20.3008 110.029 20.3082 110.048 20.3082H112.88C112.899 20.3082 112.917 20.3008 112.931 20.2874C112.944 20.2741 112.951 20.256 112.951 20.2372V14.7872H113.287L115.049 20.235V20.2594C115.054 20.2737 115.062 20.2861 115.074 20.2949C115.086 20.3037 115.101 20.3084 115.116 20.3082H118.133C118.145 20.3099 118.158 20.308 118.17 20.303C118.182 20.2979 118.192 20.2897 118.199 20.2794ZM112.951 7.05054C114.317 7.06386 114.949 7.82976 114.949 9.45478V9.63682C114.949 11.2396 114.268 12.0788 112.976 12.0788H112.947L112.951 7.05054Z" fill="white"/>
<path d="M137.639 20.2818C137.646 20.2738 137.651 20.2646 137.653 20.2546C137.656 20.2447 137.656 20.2343 137.655 20.2241L134.636 4.3002V4.27134C134.633 4.25527 134.624 4.24074 134.612 4.23023C134.599 4.21971 134.583 4.21384 134.567 4.21362H131.57C131.554 4.21384 131.538 4.21971 131.525 4.23023C131.513 4.24074 131.504 4.25527 131.501 4.27134L128.477 20.2241C128.476 20.2343 128.476 20.2447 128.479 20.2546C128.482 20.2646 128.487 20.2738 128.493 20.2818C128.499 20.2901 128.507 20.2968 128.516 20.3014C128.526 20.306 128.536 20.3085 128.546 20.3085H131.292C131.309 20.3081 131.325 20.302 131.338 20.291C131.35 20.28 131.359 20.265 131.361 20.2485L131.85 17.1627H134.178L134.689 20.2485C134.692 20.2654 134.7 20.2807 134.713 20.2917C134.726 20.3027 134.743 20.3087 134.76 20.3085H137.593C137.602 20.3075 137.611 20.3046 137.619 20.3C137.627 20.2955 137.634 20.2892 137.639 20.2818ZM133.024 10.0078L133.737 14.461H132.291L133.024 10.0078Z" fill="white"/>
<path d="M147.044 4.25781H144.28C144.261 4.25781 144.243 4.2653 144.23 4.27862C144.216 4.29194 144.209 4.31001 144.209 4.32885V11.7436L141.636 4.32885V4.30443C141.631 4.29078 141.622 4.27899 141.61 4.27065C141.598 4.26232 141.584 4.25784 141.569 4.25781H138.919C138.9 4.25781 138.882 4.2653 138.868 4.27862C138.855 4.29194 138.848 4.31001 138.848 4.32885V20.2372C138.848 20.256 138.855 20.2741 138.868 20.2874C138.882 20.3008 138.9 20.3082 138.919 20.3082H141.683C141.701 20.3082 141.719 20.3008 141.733 20.2874C141.746 20.2741 141.754 20.256 141.754 20.2372V12.4318L144.464 20.2305V20.255C144.469 20.2686 144.478 20.2804 144.49 20.2887C144.502 20.2971 144.516 20.3016 144.531 20.3016H147.035C147.054 20.3016 147.072 20.2941 147.085 20.2808C147.098 20.2675 147.106 20.2494 147.106 20.2305V4.32885C147.106 4.31145 147.1 4.29461 147.088 4.28152C147.077 4.26842 147.061 4.25999 147.044 4.25781Z" fill="white"/>
<path d="M127.371 11.0999H123.43C123.421 11.0999 123.412 11.1017 123.403 11.1053C123.395 11.1089 123.387 11.1142 123.381 11.1208C123.374 11.1275 123.369 11.1353 123.366 11.1439C123.363 11.1525 123.361 11.1617 123.361 11.1709V13.6795C123.359 13.6898 123.359 13.7004 123.361 13.7106C123.364 13.7209 123.368 13.7304 123.375 13.7386C123.382 13.7467 123.39 13.7532 123.4 13.7576C123.409 13.762 123.42 13.7641 123.43 13.7639H124.742V17.7598C124.681 17.7707 124.62 17.7751 124.558 17.7732C123.04 17.7732 122.236 15.9972 122.236 12.6672V11.8702C122.236 10.1942 122.471 8.911 122.935 8.05853C123.379 7.25934 123.992 6.85531 124.789 6.85531C125.517 6.85531 126.121 7.12614 126.8 7.53462C126.811 7.54108 126.823 7.54449 126.836 7.54449C126.848 7.54449 126.86 7.54108 126.871 7.53462C126.882 7.52888 126.891 7.52024 126.897 7.50966C126.904 7.49908 126.907 7.48698 126.907 7.47468V4.55097C126.907 4.53788 126.903 4.52508 126.896 4.51407C126.889 4.50306 126.879 4.4943 126.867 4.48881C126.188 4.17076 125.445 4.01062 124.696 4.0204C123.924 4.00783 123.162 4.18633 122.476 4.53998C121.791 4.89363 121.203 5.41144 120.766 6.04723C119.774 7.42806 119.25 9.48154 119.25 11.9857V12.5362C119.25 15.2002 119.765 17.2492 120.777 18.6301C121.191 19.218 121.741 19.6957 122.382 20.0216C123.022 20.3474 123.733 20.5114 124.451 20.4993C125.561 20.4993 126.407 20.2329 127.402 19.8044C127.415 19.7992 127.426 19.7903 127.434 19.7789C127.442 19.7675 127.446 19.7539 127.446 19.7401V11.1798C127.448 11.1694 127.447 11.1588 127.443 11.1488C127.44 11.1388 127.435 11.1296 127.427 11.122C127.42 11.1143 127.411 11.1084 127.401 11.1046C127.392 11.1008 127.381 11.0992 127.371 11.0999Z" fill="white"/>
<path d="M47.9069 11.1H43.9731C43.9543 11.1 43.9362 11.1075 43.9229 11.1208C43.9095 11.1342 43.9021 11.1522 43.9021 11.1711V13.6797C43.9021 13.6889 43.9039 13.698 43.9075 13.7065C43.9111 13.715 43.9164 13.7227 43.923 13.7291C43.9296 13.7355 43.9375 13.7406 43.9461 13.7439C43.9547 13.7472 43.9639 13.7488 43.9731 13.7485H45.2873V17.7444C45.2273 17.7552 45.1663 17.7597 45.1053 17.7578C43.5846 17.7578 42.7832 15.9818 42.7832 12.6518V11.8704C42.7832 10.1943 43.0163 8.91114 43.4803 8.05867C43.9243 7.25948 44.5392 6.85545 45.3339 6.85545C46.0643 6.85545 46.6659 7.12628 47.3475 7.53476C47.3582 7.54122 47.3705 7.54463 47.383 7.54463C47.3955 7.54463 47.4078 7.54122 47.4185 7.53476C47.4294 7.52902 47.4385 7.52038 47.4447 7.5098C47.451 7.49922 47.4542 7.48712 47.454 7.47482V4.55111C47.454 4.53802 47.4502 4.52522 47.4431 4.51421C47.436 4.5032 47.4259 4.49444 47.4141 4.48895C46.735 4.1709 45.9927 4.01075 45.2429 4.02054C44.4679 4.00447 43.701 4.18129 43.0113 4.53508C42.3215 4.88887 41.7305 5.40855 41.2914 6.04737C40.3013 7.4282 39.7773 9.48168 39.7773 11.9858V12.5364C39.7773 15.2003 40.2902 17.2494 41.3025 18.6302C41.7162 19.2181 42.2675 19.6959 42.9083 20.0217C43.5491 20.3475 44.26 20.5115 44.9788 20.4994C46.0887 20.4994 46.9345 20.233 47.9291 19.8046C47.9417 19.7993 47.9525 19.7903 47.96 19.7788C47.9675 19.7674 47.9715 19.7539 47.9713 19.7402V11.18C47.9725 11.1705 47.9718 11.1608 47.9692 11.1516C47.9666 11.1423 47.9622 11.1337 47.9562 11.1263C47.9501 11.1188 47.9427 11.1126 47.9342 11.1081C47.9257 11.1036 47.9165 11.1009 47.9069 11.1Z" fill="white"/>
<path d="M18.3109 30.5247H17.1476C17.1068 30.5247 17.0676 30.5086 17.0385 30.4799C17.0094 30.4513 16.9928 30.4123 16.9922 30.3715V29.4835C16.9928 29.4427 17.0094 29.4037 17.0385 29.375C17.0676 29.3464 17.1068 29.3303 17.1476 29.3303H20.7595C20.8003 29.3303 20.8395 29.3464 20.8686 29.375C20.8977 29.4037 20.9143 29.4427 20.9149 29.4835V30.3715C20.9143 30.4123 20.8977 30.4513 20.8686 30.4799C20.8395 30.5086 20.8003 30.5247 20.7595 30.5247H19.5962V34.8692C19.5951 34.91 19.5784 34.9489 19.5495 34.9778C19.5206 35.0067 19.4817 35.0234 19.4408 35.0246H18.4663C18.4254 35.0234 18.3865 35.0067 18.3576 34.9778C18.3287 34.9489 18.312 34.91 18.3109 34.8692V30.5247Z" fill="white"/>
<path d="M22.3359 29.4835C22.3376 29.443 22.3546 29.4047 22.3834 29.3763C22.4123 29.3478 22.4508 29.3314 22.4913 29.3303H23.4592C23.5001 29.3303 23.5393 29.3464 23.5684 29.375C23.5974 29.4037 23.6141 29.4427 23.6146 29.4835V31.5348H25.9412V29.4835C25.9412 29.4429 25.9573 29.4039 25.986 29.3752C26.0148 29.3465 26.0537 29.3303 26.0944 29.3303H27.0623C27.1028 29.3314 27.1413 29.3478 27.1702 29.3763C27.199 29.4047 27.216 29.443 27.2177 29.4835V34.8692C27.2165 34.91 27.1998 34.9489 27.1709 34.9778C27.142 35.0067 27.1031 35.0234 27.0623 35.0246H26.0944C26.0741 35.0246 26.054 35.0205 26.0352 35.0127C26.0165 35.0049 25.9995 34.9934 25.9853 34.9789C25.971 34.9645 25.9598 34.9473 25.9522 34.9285C25.9446 34.9096 25.9409 34.8895 25.9412 34.8692V32.7313H23.6146V34.8692C23.6146 34.9104 23.5983 34.9499 23.5691 34.979C23.54 35.0082 23.5005 35.0246 23.4592 35.0246H22.4913C22.4505 35.0234 22.4116 35.0067 22.3827 34.9778C22.3538 34.9489 22.3371 34.91 22.3359 34.8692V29.4835Z" fill="white"/>
<path d="M29.2266 29.4835C29.2271 29.4427 29.2438 29.4037 29.2729 29.375C29.3019 29.3464 29.3411 29.3303 29.382 29.3303H32.7497C32.7905 29.3303 32.8297 29.3464 32.8588 29.375C32.8879 29.4037 32.9045 29.4427 32.9051 29.4835V30.3715C32.9045 30.4123 32.8879 30.4513 32.8588 30.4799C32.8297 30.5086 32.7905 30.5247 32.7497 30.5247H30.4964V31.5348H32.3523C32.3924 31.5364 32.4304 31.5531 32.4588 31.5814C32.4872 31.6098 32.5038 31.6478 32.5055 31.6879V32.5759C32.5055 32.6168 32.4894 32.656 32.4607 32.685C32.4321 32.7141 32.3931 32.7307 32.3523 32.7313H30.4964V33.828H32.7497C32.7909 33.828 32.8304 33.8444 32.8595 33.8735C32.8887 33.9027 32.9051 33.9422 32.9051 33.9834V34.8714C32.9051 34.9126 32.8887 34.9521 32.8595 34.9813C32.8304 35.0104 32.7909 35.0268 32.7497 35.0268H29.382C29.3407 35.0268 29.3012 35.0104 29.2721 34.9813C29.2429 34.9521 29.2266 34.9126 29.2266 34.8714V29.4835Z" fill="white"/>
<path d="M37.5742 29.3793C37.5802 29.3441 37.598 29.3119 37.6246 29.2882C37.6512 29.2644 37.6851 29.2503 37.7208 29.2483H37.8517C37.8795 29.2504 37.9063 29.2589 37.9302 29.2732C37.9541 29.2874 37.9743 29.307 37.9894 29.3304L39.8786 32.8558H39.8941L41.7811 29.3415C41.7961 29.3181 41.8164 29.2985 41.8403 29.2843C41.8641 29.27 41.891 29.2615 41.9187 29.2594H42.0497C42.0854 29.2614 42.1193 29.2755 42.1459 29.2992C42.1725 29.323 42.1902 29.3552 42.1962 29.3904L43.1153 34.8537C43.1201 34.8761 43.1197 34.8992 43.1141 34.9214C43.1085 34.9435 43.0979 34.9641 43.0831 34.9815C43.0683 34.9989 43.0497 35.0126 43.0287 35.0216C43.0077 35.0307 42.9849 35.0347 42.9621 35.0336H42.0009C41.9641 35.0319 41.929 35.0182 41.9009 34.9945C41.8728 34.9708 41.8533 34.9385 41.8455 34.9026L41.4814 32.3896H41.4636L40.0983 35.0247C40.0833 35.0493 40.063 35.0703 40.0388 35.0861C40.0145 35.1018 39.9871 35.1119 39.9585 35.1157H39.812C39.7834 35.1128 39.7559 35.103 39.7319 35.0871C39.708 35.0713 39.6882 35.0498 39.6743 35.0247L38.3002 32.3896H38.2824L37.925 34.9026C37.9187 34.9392 37.8997 34.9725 37.8712 34.9965C37.8428 35.0204 37.8068 35.0336 37.7696 35.0336H36.8106C36.7877 35.0347 36.7649 35.0305 36.7438 35.0215C36.7228 35.0125 36.7041 34.9988 36.6891 34.9815C36.6741 34.9641 36.6633 34.9436 36.6574 34.9215C36.6515 34.8994 36.6508 34.8762 36.6552 34.8537L37.5742 29.3793Z" fill="white"/>
<path d="M47.2842 29.2483C47.8632 29.2487 48.4291 29.4207 48.9105 29.7425C49.3918 30.0642 49.7671 30.5214 49.9889 31.0563C50.2106 31.5911 50.269 32.1797 50.1566 32.7477C50.0441 33.3156 49.766 33.8376 49.3572 34.2476C48.9484 34.6577 48.4273 34.9374 47.8596 35.0515C47.292 35.1657 46.7033 35.1091 46.1677 34.8889C45.6322 34.6688 45.1739 34.2949 44.8507 33.8145C44.5275 33.3341 44.3538 32.7688 44.3516 32.1898C44.3493 31.8036 44.4235 31.4208 44.5699 31.0634C44.7163 30.706 44.9321 30.3812 45.2048 30.1078C45.4774 29.8343 45.8016 29.6175 46.1585 29.47C46.5154 29.3225 46.898 29.2471 47.2842 29.2483ZM47.2842 33.8037C47.6068 33.8055 47.9226 33.7113 48.1916 33.5332C48.4605 33.355 48.6705 33.101 48.7947 32.8033C48.919 32.5056 48.952 32.1777 48.8895 31.8612C48.827 31.5447 48.6718 31.254 48.4437 31.0258C48.2156 30.7977 47.9248 30.6426 47.6083 30.5801C47.2919 30.5176 46.964 30.5505 46.6663 30.6748C46.3686 30.7991 46.1145 31.009 45.9364 31.278C45.7583 31.5469 45.6641 31.8627 45.6658 32.1853C45.6688 32.6137 45.8402 33.0236 46.1431 33.3265C46.4459 33.6293 46.8559 33.8008 47.2842 33.8037Z" fill="white"/>
<path d="M51.7974 29.4835C51.7974 29.4429 51.8136 29.4039 51.8423 29.3752C51.871 29.3465 51.91 29.3303 51.9506 29.3303H54.3926C54.8602 29.3303 55.3089 29.5147 55.6414 29.8434C55.9739 30.1722 56.1633 30.6188 56.1686 31.0863C56.1578 31.4489 56.0369 31.7997 55.822 32.0919C55.607 32.3842 55.3083 32.6041 54.9653 32.7224L56.0753 34.7892C56.0898 34.8133 56.0975 34.8408 56.0975 34.8689C56.0976 34.897 56.0901 34.9246 56.0757 34.9487C56.0614 34.9728 56.0408 34.9926 56.0161 35.006C55.9914 35.0194 55.9635 35.0258 55.9355 35.0246H54.8543C54.8281 35.0246 54.8022 35.0179 54.7793 35.0051C54.7563 34.9922 54.7371 34.9737 54.7234 34.9513L53.6422 32.7957H53.0806V34.8692C53.0795 34.91 53.0627 34.9489 53.0338 34.9778C53.0049 35.0067 52.966 35.0234 52.9252 35.0246H51.9462C51.9259 35.0246 51.9058 35.0205 51.887 35.0127C51.8683 35.0049 51.8513 34.9934 51.8371 34.9789C51.8228 34.9645 51.8116 34.9473 51.804 34.9285C51.7964 34.9096 51.7927 34.8895 51.793 34.8692L51.7974 29.4835ZM54.2771 31.7612C54.444 31.7527 54.6013 31.6805 54.7165 31.5595C54.8317 31.4384 54.8962 31.2778 54.8965 31.1107C54.8953 30.947 54.8296 30.7904 54.7137 30.6749C54.5977 30.5593 54.4408 30.4942 54.2771 30.4936H53.0739V31.7612H54.2771Z" fill="white"/>
<path d="M60.3839 29.2571C61.1148 29.2734 61.8172 29.5434 62.3708 30.0208C62.3881 30.0331 62.4025 30.0491 62.4129 30.0677C62.4232 30.0863 62.4294 30.1069 62.4309 30.1281C62.4324 30.1493 62.4291 30.1706 62.4214 30.1904C62.4137 30.2102 62.4018 30.2281 62.3864 30.2428L61.7426 30.9265C61.7118 30.9534 61.6724 30.9682 61.6316 30.9682C61.5907 30.9682 61.5513 30.9534 61.5206 30.9265C61.2299 30.6608 60.8462 30.5204 60.4528 30.5358C60.0307 30.5514 59.6311 30.73 59.3381 31.0341C59.045 31.3382 58.8812 31.744 58.8812 32.1664C58.8812 32.5887 59.045 32.9946 59.3381 33.2987C59.6311 33.6027 60.0307 33.7814 60.4528 33.7969C60.7 33.801 60.9458 33.7573 61.1765 33.6682V33.1953H60.6637C60.6439 33.1962 60.6241 33.1931 60.6055 33.1861C60.587 33.1792 60.57 33.1685 60.5557 33.1548C60.5414 33.1411 60.53 33.1247 60.5222 33.1065C60.5145 33.0882 60.5105 33.0686 60.5105 33.0488V32.243C60.5099 32.2227 60.5134 32.2025 60.5209 32.1836C60.5284 32.1647 60.5396 32.1476 60.554 32.1333C60.5683 32.1189 60.5854 32.1077 60.6043 32.1002C60.6232 32.0927 60.6434 32.0892 60.6637 32.0898H62.2998C62.3392 32.0915 62.3765 32.1084 62.4038 32.1369C62.4311 32.1655 62.4463 32.2035 62.4463 32.243V34.4318C62.4413 34.4823 62.4175 34.5291 62.3797 34.5628C61.7709 34.9082 61.0839 35.0924 60.3839 35.0978C59.6233 35.0769 58.9009 34.76 58.3704 34.2146C57.8398 33.6692 57.543 32.9383 57.543 32.1775C57.543 31.4166 57.8398 30.6857 58.3704 30.1403C58.9009 29.5949 59.6233 29.2781 60.3839 29.2571Z" fill="white"/>
<path d="M63.4498 34.8138L65.9961 29.3371C66.0093 29.3115 66.0289 29.2899 66.0531 29.2743C66.0772 29.2587 66.1051 29.2498 66.1338 29.2483H66.2159C66.2447 29.2495 66.2726 29.2584 66.2968 29.274C66.321 29.2896 66.3406 29.3114 66.3535 29.3371L68.8998 34.8138C68.9158 34.8366 68.9247 34.8635 68.9255 34.8913C68.9263 34.9191 68.9189 34.9465 68.9042 34.9702C68.8896 34.9938 68.8683 35.0126 68.8431 35.0243C68.8178 35.0359 68.7897 35.0399 68.7622 35.0358H67.8587C67.7122 35.0358 67.6478 34.9869 67.5745 34.8315L67.2815 34.1877H65.0615L64.7685 34.8382C64.7462 34.8973 64.706 34.948 64.6534 34.983C64.6008 35.0181 64.5386 35.0357 64.4754 35.0336H63.5874C63.5603 35.0373 63.5326 35.0332 63.5078 35.0216C63.483 35.01 63.462 34.9915 63.4475 34.9682C63.4329 34.945 63.4254 34.9181 63.4258 34.8907C63.4262 34.8633 63.4346 34.8366 63.4498 34.8138ZM66.7931 33.0778L66.1759 31.7458L65.5654 33.0778H66.7931Z" fill="white"/>
<path d="M70.168 29.3948C70.1697 29.355 70.1869 29.3174 70.2159 29.29C70.2449 29.2627 70.2835 29.2477 70.3234 29.2483H70.5254L73.771 32.3718V29.4858C73.771 29.4655 73.775 29.4454 73.7829 29.4267C73.7907 29.408 73.8022 29.391 73.8166 29.3767C73.8311 29.3625 73.8483 29.3513 73.8671 29.3437C73.8859 29.3361 73.9061 29.3324 73.9264 29.3327H74.9032C74.9433 29.3343 74.9813 29.351 75.0097 29.3794C75.0381 29.4077 75.0547 29.4457 75.0564 29.4858V34.9625C75.0546 35.002 75.0378 35.0393 75.0092 35.0666C74.9807 35.0939 74.9427 35.1091 74.9032 35.109H74.7722C74.7338 35.104 74.6971 35.0895 74.6656 35.0669L71.4622 31.8346V34.8693C71.4622 34.9105 71.4458 34.95 71.4167 34.9792C71.3876 35.0083 71.348 35.0247 71.3068 35.0247H70.3389C70.2984 35.023 70.2601 35.006 70.2317 34.9772C70.2032 34.9483 70.1868 34.9098 70.1857 34.8693L70.168 29.3948Z" fill="white"/>
<path d="M82.0049 29.2481C82.3669 29.2375 82.7274 29.2989 83.0654 29.4289C83.4035 29.5588 83.7123 29.7547 83.974 30.0051C83.9893 30.0192 84.0016 30.0364 84.01 30.0555C84.0183 30.0746 84.0227 30.0952 84.0227 30.1161C84.0227 30.1369 84.0183 30.1576 84.01 30.1767C84.0016 30.1958 83.9893 30.2129 83.974 30.2271L83.3391 30.8931C83.3259 30.9068 83.31 30.9176 83.2924 30.9251C83.2749 30.9325 83.256 30.9363 83.237 30.9363C83.2179 30.9363 83.1991 30.9325 83.1815 30.9251C83.164 30.9176 83.1481 30.9068 83.1349 30.8931C82.8321 30.6257 82.4421 30.4781 82.0382 30.4779C81.5966 30.4779 81.1731 30.6533 80.8609 30.9656C80.5486 31.2778 80.3732 31.7013 80.3732 32.1429C80.3732 32.5845 80.5486 33.008 80.8609 33.3202C81.1731 33.6325 81.5966 33.8079 82.0382 33.8079C82.4359 33.8086 82.8215 33.6704 83.1282 33.4172C83.1583 33.3889 83.1979 33.3732 83.2392 33.3732C83.2804 33.3732 83.3201 33.3889 83.3502 33.4172L83.9851 34.0832C84.0129 34.1135 84.0283 34.1531 84.0283 34.1942C84.0283 34.2353 84.0129 34.2749 83.9851 34.3052C83.4562 34.8198 82.745 35.1039 82.0071 35.0955C81.6157 35.1062 81.226 35.0385 80.8612 34.8961C80.4964 34.7537 80.1638 34.5397 79.8831 34.2666C79.6024 33.9935 79.3793 33.667 79.2269 33.3062C79.0746 32.9455 78.9961 32.5578 78.9961 32.1662C78.9961 31.7746 79.0746 31.387 79.2269 31.0262C79.3793 30.6654 79.6024 30.3389 79.8831 30.0658C80.1638 29.7927 80.4964 29.5787 80.8612 29.4363C81.226 29.294 81.6157 29.2262 82.0071 29.2369L82.0049 29.2481Z" fill="white"/>
<path d="M88.0521 29.2483C88.6317 29.2461 89.1989 29.4158 89.682 29.736C90.1651 30.0562 90.5424 30.5124 90.7663 31.047C90.9901 31.5816 91.0503 32.1706 90.9394 32.7395C90.8285 33.3083 90.5514 33.8315 90.1431 34.2429C89.7349 34.6542 89.2138 34.9353 88.6458 35.0505C88.0778 35.1658 87.4884 35.11 86.9521 34.8902C86.4158 34.6704 85.9567 34.2966 85.6329 33.8159C85.3091 33.3352 85.1351 32.7693 85.1329 32.1898C85.1305 31.8047 85.2043 31.423 85.3499 31.0665C85.4955 30.71 85.7101 30.3858 85.9813 30.1125C86.2526 29.8392 86.5752 29.6221 86.9305 29.4738C87.2859 29.3255 87.6671 29.2489 88.0521 29.2483ZM88.0521 33.8037C88.3747 33.8055 88.6906 33.7113 88.9595 33.5332C89.2285 33.355 89.4384 33.101 89.5627 32.8033C89.6869 32.5056 89.7199 32.1777 89.6574 31.8612C89.5949 31.5447 89.4397 31.254 89.2116 31.0259C88.9835 30.7977 88.6928 30.6426 88.3763 30.5801C88.0598 30.5176 87.7319 30.5505 87.4342 30.6748C87.1365 30.7991 86.8824 31.009 86.7043 31.278C86.5262 31.5469 86.432 31.8628 86.4338 32.1853C86.4361 32.6138 86.6074 33.0241 86.9104 33.3271C87.2134 33.6301 87.6236 33.8014 88.0521 33.8037Z" fill="white"/>
<path d="M92.5742 29.3948C92.5759 29.355 92.5932 29.3174 92.6222 29.29C92.6512 29.2627 92.6897 29.2477 92.7296 29.2483H92.9339L96.1795 32.3718V29.4858C96.1795 29.4452 96.1956 29.4063 96.2243 29.3775C96.2531 29.3488 96.292 29.3327 96.3326 29.3327H97.3094C97.3499 29.3338 97.3885 29.3502 97.4173 29.3786C97.4462 29.4071 97.4632 29.4454 97.4648 29.4858V34.9625C97.4631 35.0024 97.4459 35.04 97.4169 35.0673C97.3879 35.0947 97.3493 35.1097 97.3094 35.109H97.1784C97.1406 35.1042 97.1047 35.0897 97.0741 35.0669L93.8618 31.8346V34.8693C93.8621 34.8896 93.8584 34.9098 93.8508 34.9286C93.8432 34.9474 93.832 34.9646 93.8177 34.979C93.8035 34.9935 93.7865 35.005 93.7678 35.0128C93.749 35.0207 93.7289 35.0247 93.7086 35.0247H92.7407C92.6999 35.0236 92.661 35.0068 92.6321 34.9779C92.6032 34.949 92.5864 34.9102 92.5853 34.8693L92.5742 29.3948Z" fill="white"/>
<path d="M99.4648 29.3948C99.4666 29.355 99.4838 29.3174 99.5128 29.29C99.5418 29.2627 99.5804 29.2477 99.6202 29.2483H99.8245L103.07 32.3718V29.4858C103.071 29.445 103.087 29.4061 103.116 29.3774C103.145 29.3487 103.185 29.3327 103.225 29.3327H104.202C104.242 29.3343 104.28 29.351 104.309 29.3794C104.337 29.4077 104.354 29.4457 104.355 29.4858V34.9625C104.354 35.002 104.337 35.0393 104.308 35.0666C104.28 35.0939 104.242 35.1091 104.202 35.109H104.071C104.033 35.1042 103.998 35.0897 103.967 35.0669L100.759 31.8346V34.8693C100.759 34.8896 100.756 34.9098 100.748 34.9286C100.741 34.9474 100.729 34.9646 100.715 34.979C100.701 34.9935 100.684 35.005 100.665 35.0128C100.646 35.0207 100.626 35.0247 100.606 35.0247H99.638C99.5971 35.0236 99.5583 35.0068 99.5294 34.9779C99.5005 34.949 99.4837 34.9102 99.4826 34.8693L99.4648 29.3948Z" fill="white"/>
<path d="M106.375 29.4835C106.375 29.4429 106.391 29.4039 106.42 29.3752C106.449 29.3465 106.488 29.3303 106.528 29.3303H109.889C109.93 29.3303 109.969 29.3465 109.998 29.3752C110.026 29.4039 110.042 29.4429 110.042 29.4835V30.3715C110.042 30.4121 110.026 30.4511 109.998 30.4798C109.969 30.5085 109.93 30.5247 109.889 30.5247H107.643V31.5348H109.499C109.539 31.5359 109.578 31.5523 109.606 31.5807C109.635 31.6091 109.652 31.6475 109.654 31.6879V32.5759C109.654 32.6171 109.638 32.6567 109.608 32.6858C109.579 32.715 109.54 32.7313 109.499 32.7313H107.643V33.828H109.889C109.91 33.828 109.93 33.832 109.948 33.8399C109.967 33.8477 109.984 33.8592 109.998 33.8736C110.013 33.8881 110.024 33.9053 110.031 33.9241C110.039 33.9429 110.043 33.9631 110.042 33.9834V34.8714C110.043 34.8917 110.039 34.9118 110.031 34.9307C110.024 34.9495 110.013 34.9667 109.998 34.9811C109.984 34.9956 109.967 35.0071 109.948 35.0149C109.93 35.0228 109.91 35.0268 109.889 35.0268H106.528C106.508 35.0268 106.488 35.0228 106.469 35.0149C106.45 35.0071 106.433 34.9956 106.419 34.9811C106.405 34.9667 106.394 34.9495 106.386 34.9307C106.378 34.9118 106.375 34.8917 106.375 34.8714V29.4835Z" fill="white"/>
<path d="M114.274 29.2481C114.636 29.2375 114.997 29.2989 115.335 29.4289C115.673 29.5588 115.982 29.7547 116.244 30.0051C116.259 30.0192 116.271 30.0364 116.279 30.0555C116.288 30.0746 116.292 30.0952 116.292 30.1161C116.292 30.1369 116.288 30.1576 116.279 30.1767C116.271 30.1958 116.259 30.2129 116.244 30.2271L115.609 30.8931C115.595 30.9068 115.58 30.9176 115.562 30.9251C115.544 30.9325 115.526 30.9363 115.507 30.9363C115.487 30.9363 115.469 30.9325 115.451 30.9251C115.434 30.9176 115.418 30.9068 115.404 30.8931C115.102 30.6257 114.712 30.4781 114.308 30.4779C113.866 30.4779 113.443 30.6533 113.13 30.9656C112.818 31.2778 112.643 31.7013 112.643 32.1429C112.643 32.5845 112.818 33.008 113.13 33.3202C113.443 33.6325 113.866 33.8079 114.308 33.8079C114.705 33.8082 115.091 33.6701 115.398 33.4172C115.428 33.3889 115.467 33.3732 115.509 33.3732C115.55 33.3732 115.59 33.3889 115.62 33.4172L116.255 34.0832C116.282 34.1135 116.298 34.1531 116.298 34.1942C116.298 34.2353 116.282 34.2749 116.255 34.3052C115.726 34.8198 115.015 35.1039 114.277 35.0955C113.885 35.1062 113.496 35.0385 113.131 34.8961C112.766 34.7537 112.433 34.5397 112.153 34.2666C111.872 33.9935 111.649 33.667 111.496 33.3062C111.344 32.9455 111.266 32.5578 111.266 32.1662C111.266 31.7746 111.344 31.387 111.496 31.0262C111.649 30.6654 111.872 30.3389 112.153 30.0658C112.433 29.7927 112.766 29.5787 113.131 29.4363C113.496 29.294 113.885 29.2262 114.277 29.2369L114.274 29.2481Z" fill="white"/>
<path d="M118.57 30.5247H117.407C117.366 30.5247 117.327 30.5085 117.299 30.4798C117.27 30.4511 117.254 30.4121 117.254 30.3715V29.4835C117.254 29.4429 117.27 29.4039 117.299 29.3752C117.327 29.3465 117.366 29.3303 117.407 29.3303H121.021C121.041 29.3303 121.061 29.3343 121.08 29.342C121.098 29.3497 121.115 29.361 121.13 29.3752C121.144 29.3894 121.155 29.4063 121.163 29.4249C121.17 29.4435 121.174 29.4634 121.174 29.4835V30.3715C121.174 30.3916 121.17 30.4115 121.163 30.4301C121.155 30.4487 121.144 30.4656 121.13 30.4798C121.115 30.494 121.098 30.5053 121.08 30.513C121.061 30.5207 121.041 30.5247 121.021 30.5247H119.856V34.8692C119.855 34.9097 119.838 34.9482 119.81 34.9771C119.781 35.0059 119.743 35.0229 119.703 35.0246H118.726C118.685 35.0234 118.646 35.0067 118.617 34.9778C118.588 34.9489 118.571 34.91 118.57 34.8692V30.5247Z" fill="white"/>
<path d="M122.598 29.4835C122.599 29.4434 122.616 29.4054 122.644 29.377C122.673 29.3486 122.711 29.332 122.751 29.3303H123.728C123.768 29.3314 123.807 29.3478 123.836 29.3763C123.864 29.4047 123.881 29.443 123.883 29.4835V34.8692C123.882 34.91 123.865 34.9489 123.836 34.9778C123.807 35.0067 123.768 35.0234 123.728 35.0246H122.751C122.71 35.0229 122.672 35.0059 122.644 34.9771C122.615 34.9482 122.599 34.9097 122.598 34.8692V29.4835Z" fill="white"/>
<path d="M128.398 29.2483C128.978 29.2466 129.545 29.4166 130.027 29.7371C130.51 30.0575 130.887 30.5139 131.111 31.0486C131.334 31.5832 131.394 32.1721 131.283 32.7408C131.172 33.3095 130.894 33.8325 130.486 34.2437C130.078 34.6548 129.557 34.9357 128.989 35.0507C128.421 35.1657 127.831 35.1098 127.295 34.89C126.759 34.6702 126.3 34.2963 125.976 33.8157C125.653 33.3351 125.479 32.7692 125.477 32.1898C125.474 31.8045 125.548 31.4226 125.694 31.066C125.84 30.7093 126.054 30.385 126.326 30.1117C126.597 29.8383 126.92 29.6214 127.276 29.4732C127.631 29.325 128.013 29.2486 128.398 29.2483ZM128.398 33.8037C128.721 33.805 129.036 33.7105 129.305 33.5321C129.574 33.3537 129.783 33.0995 129.907 32.8017C130.031 32.504 130.064 32.1761 130.001 31.8598C129.938 31.5435 129.783 31.2529 129.555 31.025C129.326 30.7972 129.036 30.6422 128.719 30.5799C128.403 30.5176 128.075 30.5507 127.777 30.675C127.48 30.7993 127.226 31.0093 127.048 31.2782C126.87 31.5471 126.776 31.8628 126.778 32.1853C126.78 32.6142 126.951 33.0248 127.255 33.3279C127.558 33.631 127.969 33.8019 128.398 33.8037Z" fill="white"/>
<path d="M132.914 29.3948C132.916 29.3554 132.933 29.3181 132.961 29.2908C132.99 29.2635 133.028 29.2483 133.067 29.2483H133.271L136.528 32.3718V29.4858C136.528 29.4452 136.544 29.4062 136.573 29.3775C136.602 29.3488 136.641 29.3327 136.681 29.3327H137.658C137.699 29.3337 137.737 29.3502 137.766 29.3786C137.795 29.407 137.812 29.4454 137.814 29.4858V34.9625C137.812 35.0024 137.795 35.04 137.766 35.0673C137.737 35.0947 137.698 35.1096 137.658 35.109H137.527C137.488 35.108 137.45 35.0965 137.416 35.0757L134.206 31.8346V34.8693C134.206 34.9105 134.19 34.95 134.161 34.9792C134.131 35.0083 134.092 35.0247 134.051 35.0247H133.083C133.042 35.0236 133.003 35.0068 132.974 34.9779C132.945 34.949 132.929 34.9101 132.927 34.8693L132.914 29.3948Z" fill="white"/>
</svg>
