<svg width="120" height="120" viewBox="0 0 120 120" fill="none" xmlns="http://www.w3.org/2000/svg">
<g opacity="0.3">
<path d="M40.3516 80C40.8016 78.85 41.0016 78.05 44.9016 76.55C49.7516 74.65 54.8516 73.75 60.0016 73.75C65.1516 73.75 70.2516 74.65 75.1016 76.55C78.9516 78.05 79.1516 78.85 79.6516 80H40.3516ZM60.0016 40C62.7516 40 65.0016 42.25 65.0016 45C65.0016 47.75 62.7516 50 60.0016 50C57.2516 50 55.0016 47.75 55.0016 45C55.0016 42.25 57.2516 40 60.0016 40Z" fill="#255096"/>
</g>
<path d="M20 65C25.5 65 30 60.5 30 55C30 49.5 25.5 45 20 45C14.5 45 10 49.5 10 55C10 60.5 14.5 65 20 65ZM25.65 70.5C23.8 70.2 21.95 70 20 70C15.05 70 10.35 71.05 6.1 72.9C2.4 74.5 0 78.1 0 82.15V90H22.5V81.95C22.5 77.8 23.65 73.9 25.65 70.5ZM100 65C105.5 65 110 60.5 110 55C110 49.5 105.5 45 100 45C94.5 45 90 49.5 90 55C90 60.5 94.5 65 100 65ZM120 82.15C120 78.1 117.6 74.5 113.9 72.9C109.65 71.05 104.95 70 100 70C98.05 70 96.2 70.2 94.35 70.5C96.35 73.9 97.5 77.8 97.5 81.95V90H120V82.15ZM81.2 68.25C75.35 65.65 68.15 63.75 60 63.75C51.85 63.75 44.65 65.7 38.8 68.25C33.4 70.65 30 76.05 30 81.95V90H90V81.95C90 76.05 86.6 70.65 81.2 68.25ZM40.35 80C40.8 78.85 41 78.05 44.9 76.55C49.75 74.65 54.85 73.75 60 73.75C65.15 73.75 70.25 74.65 75.1 76.55C78.95 78.05 79.15 78.85 79.65 80H40.35ZM60 40C62.75 40 65 42.25 65 45C65 47.75 62.75 50 60 50C57.25 50 55 47.75 55 45C55 42.25 57.25 40 60 40ZM60 30C51.7 30 45 36.7 45 45C45 53.3 51.7 60 60 60C68.3 60 75 53.3 75 45C75 36.7 68.3 30 60 30Z" fill="#FAEC50"/>
</svg>
