<svg width="30" height="32" viewBox="0 0 30 32" fill="none" xmlns="http://www.w3.org/2000/svg">
<g clip-path="url(#clip0_1019_7235)">
<path d="M9.86141 28.3035C20.8443 28.3035 26.8532 18.852 26.8532 10.6582C26.8532 10.3925 26.8475 10.1209 26.8361 9.8552C28.005 8.97736 29.0138 7.89002 29.815 6.64428C28.7263 7.14726 27.5705 7.47576 26.3869 7.61854C27.6331 6.84282 28.5662 5.62419 29.0132 4.18856C27.8409 4.91008 26.5588 5.41904 25.2219 5.69365C24.3211 4.69972 23.1301 4.04163 21.8331 3.82111C20.536 3.60059 19.2051 3.82992 18.0462 4.47366C16.8872 5.1174 15.9648 6.13968 15.4214 7.38245C14.878 8.62523 14.744 10.0193 15.0401 11.3491C12.6663 11.2254 10.3439 10.585 8.22366 9.46942C6.1034 8.35387 4.23256 6.78806 2.73242 4.8735C1.96997 6.23861 1.73666 7.85398 2.07991 9.39131C2.42315 10.9286 3.3172 12.2726 4.58034 13.15C3.63205 13.1187 2.70453 12.8536 1.87442 12.3765V12.4532C1.87357 13.8858 2.35049 15.2745 3.2241 16.3832C4.09771 17.4919 5.3141 18.2523 6.6665 18.535C5.78806 18.7845 4.86609 18.8209 3.97195 18.6412C4.35357 19.8733 5.09607 20.9508 6.09581 21.7236C7.09556 22.4963 8.30267 22.9256 9.54869 22.9516C7.43332 24.6771 4.82023 25.6131 2.13029 25.6087C1.65325 25.6079 1.17668 25.5775 0.703125 25.5177C3.43582 27.3383 6.61468 28.3053 9.86141 28.3035Z" fill="#0A66C2"/>
</g>
<defs>
<clipPath id="clip0_1019_7235">
<rect width="29.1118" height="30.2315" fill="white" transform="translate(0.703125 0.906128)"/>
</clipPath>
</defs>
</svg>
