<svg width="30" height="26" viewBox="0 0 30 26" fill="none" xmlns="http://www.w3.org/2000/svg">
<path d="M9.86141 25.3973C20.8443 25.3973 26.8532 15.9458 26.8532 7.75198C26.8532 7.48627 26.8475 7.21466 26.8361 6.94895C28.005 6.07111 29.0138 4.98377 29.815 3.73803C28.7263 4.24101 27.5705 4.56951 26.3869 4.71229C27.6331 3.93657 28.5662 2.71794 29.0132 1.28231C27.8409 2.00383 26.5588 2.51279 25.2219 2.7874C24.3211 1.79347 23.1301 1.13538 21.8331 0.914856C20.536 0.694336 19.2051 0.923673 18.0462 1.56741C16.8872 2.21115 15.9648 3.23343 15.4214 4.4762C14.878 5.71898 14.744 7.11303 15.0401 8.44281C12.6663 8.31911 10.3439 7.67872 8.22366 6.56317C6.1034 5.44762 4.23256 3.88181 2.73242 1.96725C1.96997 3.33236 1.73666 4.94773 2.07991 6.48506C2.42315 8.02239 3.3172 9.36632 4.58034 10.2437C3.63205 10.2125 2.70453 9.94731 1.87442 9.47021V9.54697C1.87357 10.9796 2.35049 12.3682 3.2241 13.477C4.09771 14.5857 5.3141 15.346 6.6665 15.6287C5.78806 15.8783 4.86609 15.9147 3.97195 15.735C4.35357 16.967 5.09607 18.0446 6.09581 18.8173C7.09556 19.59 8.30267 20.0193 9.54869 20.0453C7.43332 21.7709 4.82023 22.7068 2.13029 22.7024C1.65325 22.7016 1.17668 22.6713 0.703125 22.6115C3.43582 24.4321 6.61468 25.399 9.86141 25.3973Z" fill="#FAEC50"/>
</svg>
