<svg width="15" height="20" viewBox="0 0 15 20" fill="none" xmlns="http://www.w3.org/2000/svg">
<path d="M7.50081 11.8598C6.72981 11.8598 5.99039 11.5986 5.44521 11.1335C4.90003 10.6685 4.59375 10.0378 4.59375 9.38013V4.42074C4.59375 3.76308 4.90003 3.13236 5.44521 2.66733C5.99039 2.20229 6.72981 1.94104 7.50081 1.94104C8.27181 1.94104 9.01124 2.20229 9.55642 2.66733C10.1016 3.13236 10.4079 3.76308 10.4079 4.42074V9.38013C10.4079 10.0378 10.1016 10.6685 9.55642 11.1335C9.01124 11.5986 8.27181 11.8598 7.50081 11.8598Z" stroke="black" stroke-width="2" stroke-miterlimit="10" stroke-linecap="round" stroke-linejoin="round"/>
<path d="M13.3158 6.90039V9.38009C13.3158 10.6954 12.7032 11.9568 11.6128 12.8869C10.5225 13.817 9.04363 14.3395 7.50163 14.3395C5.95962 14.3395 4.48078 13.817 3.39042 12.8869C2.30006 11.9568 1.6875 10.6954 1.6875 9.38009V6.90039M7.50163 14.3395V18.059M4.59456 18.059H10.4087" stroke="black" stroke-width="2" stroke-miterlimit="10" stroke-linecap="round" stroke-linejoin="round"/>
</svg>
