<svg width="12" height="19" viewBox="0 0 12 19" fill="none" xmlns="http://www.w3.org/2000/svg">
<path d="M6.05443 10.9188C5.45051 10.9188 4.87133 10.6575 4.44429 10.1925C4.01725 9.72746 3.77734 9.09674 3.77734 8.43909V3.4797C3.77734 2.82204 4.01725 2.19132 4.44429 1.72629C4.87133 1.26125 5.45051 1 6.05443 1C6.65836 1 7.23754 1.26125 7.66458 1.72629C8.09162 2.19132 8.33152 2.82204 8.33152 3.4797V8.43909C8.33152 9.09674 8.09162 9.72746 7.66458 10.1925C7.23754 10.6575 6.65836 10.9188 6.05443 10.9188Z" fill="#0A66C2" stroke="#0A66C2" stroke-width="2" stroke-miterlimit="10" stroke-linecap="round" stroke-linejoin="round"/>
<path d="M10.6084 5.95947V8.43917C10.6084 9.75448 10.1285 11.0159 9.27447 11.946C8.4204 12.8761 7.26202 13.3986 6.05418 13.3986C4.84634 13.3986 3.68796 12.8761 2.83389 11.946C1.97981 11.0159 1.5 9.75448 1.5 8.43917V5.95947M6.05418 13.3986V17.1181V13.3986ZM3.77709 17.1181H8.33127H3.77709Z" fill="#0A66C2"/>
<path d="M10.6084 5.95947V8.43917C10.6084 9.75448 10.1285 11.0159 9.27447 11.946C8.4204 12.8761 7.26202 13.3986 6.05418 13.3986C4.84634 13.3986 3.68796 12.8761 2.83389 11.946C1.97981 11.0159 1.5 9.75448 1.5 8.43917V5.95947M6.05418 13.3986V17.1181M3.77709 17.1181H8.33127" stroke="#0A66C2" stroke-width="2" stroke-miterlimit="10" stroke-linecap="round" stroke-linejoin="round"/>
</svg>
