<svg width="29" height="22" viewBox="0 0 29 22" fill="none" xmlns="http://www.w3.org/2000/svg">
<path d="M28.1782 5.06956C28.1782 5.06956 27.9048 2.98524 27.0628 2.07002C25.9967 0.865488 24.8049 0.859583 24.2582 0.788728C20.3436 0.481689 14.4664 0.481689 14.4664 0.481689H14.4554C14.4554 0.481689 8.57819 0.481689 4.66366 0.788728C4.11694 0.859583 2.92509 0.865488 1.85898 2.07002C1.01703 2.98524 0.749139 5.06956 0.749139 5.06956C0.749139 5.06956 0.464844 7.51996 0.464844 9.96447V12.2554C0.464844 14.6999 0.743672 17.1504 0.743672 17.1504C0.743672 17.1504 1.01703 19.2347 1.85352 20.1499C2.91962 21.3544 4.31923 21.3131 4.94249 21.443C7.18405 21.6733 14.4609 21.7441 14.4609 21.7441C14.4609 21.7441 20.3436 21.7323 24.2582 21.4312C24.8049 21.3603 25.9967 21.3544 27.0628 20.1499C27.9048 19.2347 28.1782 17.1504 28.1782 17.1504C28.1782 17.1504 28.457 14.7059 28.457 12.2554V9.96447C28.457 7.51996 28.1782 5.06956 28.1782 5.06956ZM11.5688 15.0365V6.5398L19.1299 10.8029L11.5688 15.0365Z" fill="#FAEC50"/>
</svg>
